<?xml version="1.0" encoding="UTF-8"?>
<svg version="1.1" viewBox="0 0 1600 568" width="48" height="48" xmlns="http://www.w3.org/2000/svg">
<path transform="translate(562 59.9)" d="m0 0c0.845-0.00387 1.69-0.00773 2.56-0.0117 1.22 0.00193 1.22 0.00193 2.46 0.00391 0.729 0.00113 1.46 0.00226 2.21 0.00342 1.96 0.129 1.96 0.129 4.96 1.13 0.701-0.0412 1.4-0.0825 2.12-0.125 4.25 0.185 7.89 1.71 11.9 3.12 0.983 0.316 0.983 0.316 1.99 0.639 5.49 1.77 10.8 3.87 16 6.24 0.783 0.351 1.57 0.702 2.37 1.06 13.8 6.26 13.8 6.26 17.6 10.1 1.32 0.697 2.65 1.37 4 2v2c0.887 0.227 1.77 0.454 2.69 0.688 3.76 1.49 5.56 3.41 8.31 6.31 0.99 0.33 1.98 0.66 3 1v2c0.742 0.248 1.49 0.495 2.25 0.75 2.98 1.35 4.65 2.76 6.75 5.25v2c0.678 0.197 1.36 0.394 2.05 0.598 4.06 1.93 6.86 4.74 10.1 7.84 0.657 0.624 1.31 1.25 1.99 1.89 6.61 6.3 13 12.8 19.4 19.3 2.71 2.66 5.56 5.06 8.48 7.46 1.96 1.94 1.96 1.94 3.86 4.81 2.27 3.36 4.88 6.04 7.8 8.82 4.7 4.58 8.92 9.35 13 14.5 2.62 3.21 5.37 6.27 8.18 9.31 0.465 0.505 0.93 1.01 1.41 1.53 1.8 1.95 3.61 3.87 5.54 5.69 1.18 1.28 1.18 1.28 1.18 3.28 0.959 0.402 0.959 0.402 1.94 0.812 2.06 1.19 2.06 1.19 3.06 4.19 1.32 0.702 2.65 1.37 4 2 2.17 2.01 4.01 4.21 5.88 6.5 2.45 2.91 4.83 4.58 8.12 6.5 0.303 0.626 0.606 1.25 0.918 1.9 3.26 6.33 12 9.94 18.1 13.1 0.864 0.458 1.73 0.915 2.62 1.39 6.92 3.58 13.4 6.08 21.3 4.14 2.07-0.66 4.1-1.39 6.14-2.16 0.742-0.274 1.48-0.547 2.25-0.829 2.24-0.833 4.46-1.69 6.69-2.55 1.81-0.684 1.81-0.684 3.66-1.38 15.4-6.19 31.4-15.8 41.9-28.9 1.63-1.88 3.41-3.39 5.32-4.98 4.01-3.4 7.1-7.25 10.3-11.4 2.09-2.64 4.41-4.95 6.82-7.29 0.66-0.825 1.32-1.65 2-2.5 2.17-2.72 4.51-5.07 7-7.5 1.33-1.33 2.67-2.67 4-4 0.687-0.686 1.37-1.37 2.08-2.08 1.54-1.55 3.08-3.11 4.61-4.67 12.1-11.8 26.1-17 42.9-16.8 18.5 0.731 41.6 13.3 54.4 26.5 0.908 0.536 1.82 1.07 2.75 1.62 0.742 0.454 1.48 0.908 2.25 1.38v2c0.619 0.103 1.24 0.206 1.88 0.312 2.12 0.688 2.12 0.688 4.12 3.69 1.73 0.944 3.45 1.89 5.19 2.82 1.96 1.28 3.18 2.6 4.62 4.43 0.722 0.908 1.44 1.82 2.19 2.75h2c1.37 1.43 1.37 1.43 3 3.44 3.53 4.17 7.41 7.72 11.5 11.3 3.65 3.27 7.07 6.74 10.5 10.2 0.887 0.887 1.77 1.77 2.69 2.69 7.31 7.31 7.31 7.31 8.81 8.88 1.61 1.59 1.61 1.59 4 3.38 2.3 1.9 3.91 3.56 5.5 6.06v2c0.99 0.33 1.98 0.66 3 1 1.4 1.39 1.4 1.39 2.94 3.25 3.34 3.95 6.8 7.77 10.3 11.6 0.519 0.563 1.04 1.13 1.57 1.71 2.35 2.54 4.7 5.06 7.18 7.48 2.16 2.16 4.31 4.32 6.44 6.5 2.48 2.5 2.48 2.5 5.06 4.5 3.64 2.91 6.79 6.26 10 9.61 5.25 5.42 10.5 10.1 16.7 14.4 3.91 2.78 7.57 5.84 11.3 8.9 1.24 1.03 1.24 1.03 2.51 2.08 0.828 0.69 1.66 1.38 2.51 2.09 2.42 1.86 4.8 3.3 7.49 4.72 3.1 1.64 6.17 3.29 9.22 5.02 12.6 7.12 25.6 10.9 40.1 7.36 12.2-4.59 20.9-13.9 28.8-23.9 2.13-2.63 4.45-4.95 6.88-7.31 0.825-0.825 1.65-1.65 2.5-2.5 0.825-0.825 1.65-1.65 2.5-2.5 0.763-0.804 1.53-1.61 2.31-2.44 8.31-7.92 16.3-12.7 28-13.1 11.1 0.313 20.4 4.9 29.7 10.6v2c1.98 0.66 3.96 1.32 6 2v2c1.23 0.29 1.23 0.29 2.48 0.586 4.7 1.89 8.01 4.77 11.8 8.04 0.754 0.633 1.51 1.27 2.28 1.92 4.57 3.85 9.09 7.75 13.5 11.8 1.81 1.64 3.65 3.23 5.5 4.82 2.7 2.35 5.33 4.76 7.93 7.21 0.971 0.915 0.971 0.915 1.96 1.85 1.29 1.22 2.57 2.44 3.85 3.66 3.77 3.56 7.65 6.77 11.9 9.81 2.5 1.9 4.58 4.09 6.77 6.34 0.66 0.33 1.32 0.66 2 1v2c1.04 0.331 1.04 0.331 2.1 0.668 3.61 1.66 6.33 4.03 9.27 6.64 3.53 3.07 7.02 6.09 10.9 8.75 2.75 1.94 2.75 1.94 3.75 3.94 1.28 0.918 2.6 1.78 3.94 2.62 3.33 2.16 6.4 4.44 9.44 7 15.3 12.4 33.3 21.3 50.6 30.4 1.02 0.537 2.05 1.07 3.1 1.63 4.84 2.54 9.68 5.06 14.5 7.58 3.38 1.75 6.75 3.52 10.1 5.3 7.91 4.2 15.9 8.29 23.9 12.3 9.16 4.53 18.3 9.1 27.2 14.1 0.764 0.416 1.53 0.831 2.31 1.26 5.06 2.91 7.89 5.82 10.9 10.9 0.794 3.14 0.594 4.65 0 8-2.44 3.08-5.27 4.76-9 6-31.8 1.74-57.6-11.3-82.6-29.8-6.92-5.09-14.2-9.67-21.4-14.2l-2.22-1.4c-8.61-5.41-17.3-10.5-26.3-15.2-31.2-16.3-59.3-34.6-81-62.6-3.39-4.34-6.91-8.59-10.4-12.8-0.652-0.801-1.3-1.6-1.98-2.43-9.3-11-22.6-19.3-37.2-20.8-25-0.999-46.5 13-66 26.9-38.9 27.5-38.9 27.5-54.8 25.3-3.25-1.47-5.5-3.48-8-6l-1.98-1.93c-1.36-1.35-2.7-2.7-4.03-4.07-2.5-2.51-5.14-4.81-7.83-7.11-1.52-1.33-3.01-2.7-4.48-4.09-10.8-10.2-23-18.5-35.4-26.6-4.36-2.92-8.64-5.94-12.9-8.96-6.59-4.64-13.2-9.18-19.9-13.6-10.2-6.75-20-13.9-29.4-21.6l-2.79-2.26c-4.33-3.52-8.65-7.06-12.9-10.7-0.643-0.545-1.29-1.09-1.95-1.65-1.36-1.41-1.36-1.41-1.36-3.41-0.559-0.231-1.12-0.461-1.7-0.699-2.91-1.64-4.86-3.71-7.18-6.11-3.99-4.09-3.99-4.09-8.31-7.81-3.04-2.57-5.48-5.35-8-8.41-1.81-2.08-1.81-2.08-4.29-3.91-2.56-2.08-4.35-4.17-6.34-6.8-3.19-4.09-6.56-7.73-10.3-11.3-4.71-4.67-8.83-9.77-12.9-15-7.79-10.8-7.79-10.8-18-18.9v-2c-9.75-3.18-17.8-2.09-26.9 2.46-2.71 1.48-5.38 3-8.05 4.54-0.745 0.329-1.49 0.657-2.26 0.996-2.09 0.949-2.09 0.949-2.74 4-1.53 1.37-3.13 2.68-4.75 3.94-5.08 4.05-9.87 8.32-14.6 12.8-2.92 2.72-5.86 5.4-8.89 8-2.88 2.49-5.57 5.11-8.25 7.81-4.01 4.05-8.15 7.82-12.5 11.5-0.837 0.726-1.67 1.45-2.54 2.2-25.6 21.8-53.4 38.8-86.6 45.7-1.09 0.228-2.18 0.456-3.31 0.69-1.04 0.203-2.07 0.406-3.14 0.615-0.926 0.183-1.85 0.366-2.81 0.554-2.85 0.289-4.89 0.0891-7.62-0.734-2.12-1.8-3.98-3.55-5.88-5.56-0.532-0.548-1.06-1.1-1.61-1.66-3.31-3.43-6.51-6.95-9.6-10.6-2.62-3.02-5.33-5.95-8.04-8.89-0.503-0.547-1.01-1.09-1.53-1.66-2.35-2.55-4.72-5.01-7.22-7.42-2.13-2.23-2.13-2.23-2.13-4.23h-2c-1.36-1.64-2.69-3.32-4-5-0.722-0.722-1.44-1.44-2.19-2.19-2.61-2.61-5.13-5.28-7.62-8-0.79-0.86-1.58-1.72-2.39-2.61-1.79-2.21-1.79-2.21-1.79-4.21l-1.69-0.688c-2.97-1.69-5.03-3.78-7.31-6.31v-2c-0.959-0.402-0.959-0.402-1.94-0.812-2.06-1.19-2.06-1.19-3.06-4.19-0.959-0.464-0.959-0.464-1.94-0.938-2.56-1.32-2.8-2.54-4.06-5.06-1.32-0.685-2.66-1.35-4-2-2.28-2.15-4.43-4.4-6.59-6.67-6.23-6.4-13.2-11.3-20.7-16-0.557-0.428-1.11-0.856-1.69-1.3v-2c-0.99-0.227-1.98-0.454-3-0.688-2.97-0.838-5.25-1.99-7.81-3.69-2.91-1.92-5.67-3.29-8.94-4.5-6.17-2.35-11.6-5.71-17.2-9.12-1.48-0.849-1.48-0.849-2.98-1.71-0.913-0.527-1.83-1.05-2.77-1.6-0.82-0.471-1.64-0.941-2.48-1.43-0.583-0.416-1.17-0.833-1.77-1.26v-2c-0.825-0.227-1.65-0.454-2.5-0.688-3.63-1.36-6.54-3.09-9.77-5.19-1.74-1.17-1.74-1.17-3.73-2.12v-2c-1.98-0.66-3.96-1.32-6-2v-2c-0.527-0.104-1.05-0.209-1.6-0.316-3.12-0.888-5.91-2.23-8.84-3.62-20.8-9.81-44.1-12.3-66-4.59-8.87 3.34-16.2 7.59-23.6 13.5-1.85 1.32-3.7 2.63-5.56 3.94-4.8 3.47-9.14 7.3-13.4 11.4-2 1.69-2 1.69-4 1.69-0.33 0.99-0.66 1.98-1 3-1.11 1.14-2.22 2.27-3.36 3.38-16 15.9-28.4 35.6-41.1 54.1-1.5 2.17-3 4.33-4.5 6.5-0.552 0.798-1.1 1.6-1.67 2.42-2.73 3.92-5.49 7.81-8.3 11.7-5.63 7.75-11.2 15.5-16.4 23.5-3.04 4.6-6.2 9.1-9.42 13.6-4.06 5.64-8.02 11.4-12 17.1-6.94 10-14 19.9-21.2 29.8-0.58 0.794-1.16 1.59-1.76 2.41-9.15 12.5-18.4 24.9-28.1 37-1.54 1.93-3.06 3.88-4.55 5.84-6.51 8.51-13.5 16.3-20.9 24.1-2.25 2.39-4.43 4.84-6.62 7.28-5.56 6.08-11.4 11.9-17.2 17.8-0.474 0.476-0.948 0.953-1.44 1.44-5.62 5.64-11.3 11.1-17.4 16.2-1.15 1.01-2.31 2.02-3.46 3.03-11 9.54-22.6 17.9-34.7 25.8-1.61 1.05-3.21 2.11-4.81 3.17-32.1 20.6-66.7 29.5-104 34.6-7.83 1.08-15.4 2.57-23 4.72-2.77 0.699-5.04 0.734-7.91 0.734-2.34 0.656-4.67 1.32-7 2 4.08-5.69 8.48-10.9 13.3-15.9 0.66-0.697 1.32-1.39 2-2.11 7.28-7.66 14.6-15.1 22.7-21.9l2.93-2.49c2.21-1.88 4.43-3.75 6.64-5.62 2.23-1.88 4.44-3.76 6.66-5.66 11.4-9.73 23.1-18.8 35.2-27.7 6.2-4.54 12.3-9.19 18.4-13.9 6.54-5.01 13.1-9.87 19.9-14.5 14.2-9.65 28-19.9 41.8-30.1 2.53-1.87 5.05-3.74 7.58-5.61 1.14-0.845 1.14-0.845 2.29-1.71 4.42-3.27 8.92-6.38 13.5-9.41 3.7-2.48 7.23-5.17 10.8-7.84 2.29-1.54 2.29-1.54 4.29-1.54v-2c1.58-1.41 1.58-1.41 3.81-3.06 7.82-5.91 15.4-12.1 22.6-18.7 1.56-1.21 1.56-1.21 3.56-1.21 0.33-0.99 0.66-1.98 1-3 1.32-1.3 1.32-1.3 3.12-2.75 10.6-9 20.7-19.2 29.2-30.2 0.557-0.66 1.11-1.32 1.69-2h2c0.231-0.559 0.461-1.12 0.699-1.7 1.64-2.91 3.71-4.86 6.11-7.18 2.89-2.82 5.68-5.59 8.19-8.75 0.66-0.784 1.32-1.57 2-2.38h2c0.66-1.32 1.32-2.64 2-4h2c0.149-0.903 0.149-0.903 0.301-1.82 0.845-2.63 1.72-3.31 3.89-4.99 3.98-3.33 7.45-6.93 10.9-10.8 7.23-7.89 14.8-15.4 22.4-22.9l2.75-2.73c0.812-0.8 1.62-1.6 2.46-2.42 2.28-2.31 2.28-2.31 4.23-4.83 2.18-2.71 4.54-5.07 7.02-7.51 0.751-0.749 1.5-1.5 2.28-2.27 1.16-1.16 1.16-1.16 2.34-2.33 4.38-4.36 8.76-8.73 13.1-13.1 2.64-2.63 5.28-5.26 7.92-7.89 2.57-2.56 5.14-5.12 7.7-7.68 0.972-0.97 1.94-1.94 2.92-2.91 6.1-6.01 6.1-6.01 11.7-12.5 0.657-0.779 1.31-1.56 1.99-2.36h2c0.202-0.54 0.405-1.08 0.613-1.64 1.95-3.33 4.72-5.64 7.57-8.18 1.18-1.07 2.36-2.14 3.54-3.21 0.566-0.513 1.13-1.03 1.72-1.55 2.95-2.71 5.76-5.56 8.55-8.42 16-16 16-16 32-32 1.33-1.34 1.33-1.34 2.68-2.71 12.2-12.1 27.5-15.5 44.1-15.4z" fill="#2B1F17"/>
<path transform="translate(392,220)" d="m0 0 4 2c0.363 5.43-0.244 8.22-3.37 12.7-0.716 1.03-1.43 2.07-2.17 3.13-0.779 1.09-1.56 2.18-2.34 3.27-0.794 1.13-1.59 2.27-2.38 3.4-2.23 3.19-4.49 6.36-6.75 9.53-0.931 1.31-1.86 2.63-2.79 3.94-1.52 2.13-3.04 4.25-4.57 6.36-3.55 4.94-6.99 9.95-10.5 14.9-6.94 10-14 19.9-21.2 29.8-0.58 0.794-1.16 1.59-1.76 2.41-9.15 12.5-18.4 24.9-28.1 37-1.54 1.93-3.06 3.88-4.55 5.84-6.51 8.51-13.5 16.3-20.9 24.1-2.25 2.39-4.43 4.84-6.62 7.28-5.56 6.08-11.4 11.9-17.2 17.8-0.474 0.476-0.948 0.953-1.44 1.44-5.62 5.64-11.3 11.1-17.4 16.2-1.15 1.01-2.31 2.02-3.46 3.03-11 9.54-22.6 17.9-34.7 25.8-1.61 1.05-3.21 2.11-4.81 3.17-32.1 20.6-66.7 29.5-104 34.6-7.83 1.08-15.4 2.57-23 4.72-2.77 0.699-5.04 0.734-7.91 0.734-2.34 0.656-4.67 1.32-7 2 4.08-5.69 8.48-10.9 13.3-15.9 0.66-0.697 1.32-1.39 2-2.11 7.28-7.66 14.6-15.1 22.7-21.9 0.968-0.822 1.94-1.64 2.93-2.49 2.21-1.88 4.43-3.75 6.64-5.62 2.23-1.88 4.44-3.76 6.66-5.66 11.4-9.73 23.1-18.8 35.2-27.7 6.2-4.54 12.3-9.19 18.4-13.9 6.54-5.01 13.1-9.87 19.9-14.5 14.2-9.65 28-19.9 41.8-30.1 2.53-1.87 5.05-3.74 7.58-5.61 0.757-0.563 1.51-1.13 2.29-1.71 4.42-3.27 8.92-6.38 13.5-9.41 3.7-2.48 7.23-5.17 10.8-7.84 2.29-1.54 2.29-1.54 4.29-1.54v-2c1.58-1.41 1.58-1.41 3.81-3.06 7.82-5.91 15.4-12.1 22.6-18.7 1.56-1.21 1.56-1.21 3.56-1.21 0.33-0.99 0.66-1.98 1-3 1.32-1.3 1.32-1.3 3.12-2.75 10.6-9 20.7-19.2 29.2-30.2 0.835-0.99 0.835-0.99 1.69-2h2c0.231-0.559 0.461-1.12 0.699-1.7 1.64-2.91 3.71-4.86 6.11-7.18 2.89-2.82 5.68-5.59 8.19-8.75 0.66-0.784 1.32-1.57 2-2.38h2c0.66-1.32 1.32-2.64 2-4h2c0.0928-0.928 0.0928-0.928 0.188-1.88 0.812-2.12 0.812-2.12 3.25-3.38 2.56-0.75 2.56-0.75 4.56-0.75 0.66-0.825 1.32-1.65 2-2.5 0.66-0.825 1.32-1.65 2-2.5h2c0.66-1.32 1.32-2.64 2-4 1.32 2.63 0.748 3.8 0.0625 6.62-0.292 1.23-0.292 1.23-0.59 2.48-0.156 0.626-0.312 1.25-0.473 1.9-0.66-0.33-1.32-0.66-2-1-0.33 0.33-0.66 0.66-1 1-1.33 0.362-2.66 0.697-4 1 1.95 1.95 3.53 2.85 6 4-0.33 0.66-0.66 1.32-1 2-1.07 0.144-2.14 0.289-3.25 0.438-3.83 0.575-5.58 1.45-8.75 3.56-1.07 0.495-2.14 0.99-3.25 1.5-3.05 1.26-3.05 1.26-3.75 4.5h2v3h2v2c-1.32 0.66-2.64 1.32-4 2 1.65 0.66 3.3 1.32 5 2 0.124-0.722 0.248-1.44 0.375-2.19 0.615-2.77 1.51-5.21 2.62-7.81 0.99 0.33 1.98 0.66 3 1 0.66-0.99 1.32-1.98 2-3h3c0.433-0.928 0.433-0.928 0.875-1.88 1.52-2.87 3.84-4.84 6.12-7.12 0.99 0.33 1.98 0.66 3 1-0.33-2.31-0.66-4.62-1-7h4c0.33-2.31 0.66-4.62 1-7 0.784-0.0619 1.57-0.124 2.38-0.188 0.866-0.268 1.73-0.536 2.62-0.812 0.674-1.66 1.34-3.33 2-5 3.12-2.31 3.12-2.31 6-4z" fill="#2A1E16"/>
<path transform="translate(980,163)" d="m0 0c0.7 0.321 1.4 0.642 2.12 0.973 4 1.43 7.82 1.42 12 1.59 3.19 0.496 4.36 1.46 6.84 3.44 2.34 0.773 2.34 0.773 4.75 1.19 0.799 0.159 1.6 0.317 2.42 0.48 0.603 0.11 1.21 0.219 1.83 0.332v2h4c2.25 1.69 2.25 1.69 4 4 0.25 2.75 0.25 2.75 0 5 1.65-0.33 3.3-0.66 5-1 0.495 1.49 0.495 1.49 1 3h3c2.17 1.82 3.41 3.61 5 6 0.66 0.33 1.32 0.66 2 1 0.495 1.49 0.495 1.49 1 3 0.495 0.495 0.99 0.99 1.5 1.5 1.5 1.5 1.5 1.5 2.5 4.5 3.01 1.23 3.01 1.23 6 2 0.0412 0.722 0.0825 1.44 0.125 2.19 1.03 3.3 2.58 4.51 5.27 6.57 3.13 2.42 5.78 5.38 8.52 8.23 3.53 3.62 6.71 6.44 11.1 9.01 1.12 2.06 1.12 2.06 2 4 2.87 2.1 2.87 2.1 6 3 1.62 1.72 3.04 3.55 4.5 5.41 1.52 1.86 1.52 1.86 4.5 2.59v2c0.536-0.268 1.07-0.536 1.62-0.812 2.38-0.188 2.38-0.188 5.25 1.62 2.66 2.39 4.26 4.96 6 8.06 2.53 4.5 5.32 7.42 9.39 10.6 1.9 1.72 2.65 3.29 3.73 5.57 0.66 0.33 1.32 0.66 2 1 1.62 1.38 1.62 1.38 3 3v3h-2v2h4c1.94 1.69 1.94 1.69 4 4 0.825 0.825 1.65 1.65 2.5 2.5 0.825 0.825 1.65 1.65 2.5 2.5 0.763 0.701 1.53 1.4 2.31 2.12 1.69 1.88 1.69 1.88 1.69 4.88 0.763 0.0825 1.53 0.165 2.31 0.25 3.3 0.92 3.73 2.05 5.69 4.75 1.66 0.688 3.32 1.36 5 2 2 3 2 3 3 6h3c4.56 1.19 7.45 2.94 11 6l2 1v2l2 1c0.99 0.66 1.98 1.32 3 2-0.33 4.29-0.66 8.58-1 13-1.09 0.0825-2.19 0.165-3.31 0.25-3.72 0.387-3.72 0.387-5.62 2.81-0.351 0.639-0.701 1.28-1.06 1.94 1.46 2.97 3.01 5.86 4.62 8.75 0.446 0.799 0.892 1.6 1.35 2.42 0.338 0.603 0.675 1.21 1.02 1.83-4-1.63-6.8-4.44-9.88-7.38-1.18-1.1-2.36-2.19-3.54-3.29-0.601-0.558-1.2-1.12-1.82-1.69-0.584-0.542-1.17-1.08-1.77-1.64-0.523-0.488-1.05-0.976-1.59-1.48-9.44-8.72-19.9-15.7-30.6-22.7-4.79-3.14-9.46-6.41-14.1-9.84-6.11-4.56-12.4-8.83-18.8-13-11.4-7.51-22.4-15.4-33-24-0.92-0.745-1.84-1.49-2.79-2.26-4.33-3.52-8.65-7.06-12.9-10.7-0.643-0.545-1.29-1.09-1.95-1.65-1.36-1.41-1.36-1.41-1.36-3.41-0.559-0.231-1.12-0.461-1.7-0.699-2.91-1.64-4.86-3.71-7.18-6.11-3.99-4.09-3.99-4.09-8.31-7.81-3.04-2.57-5.48-5.35-8-8.41-1.81-2.08-1.81-2.08-4.29-3.91-2.56-2.08-4.35-4.17-6.34-6.8-3.19-4.09-6.56-7.73-10.3-11.3-5.83-5.78-10.8-12.3-15.8-18.7-3.3-4.22-6.8-8.01-10.8-11.6-1.36-1.55-1.36-1.55-1.36-4.55-0.66-0.33-1.32-0.66-2-1 2.49-0.687 4.38-1 7-1v2h-2v3c1.3 0.124 2.6 0.248 3.94 0.375 2.21 0.211 2.21 0.211 4.06 0.625 0.33 0.66 0.66 1.32 1 2 0.66-1.32 1.32-2.64 2-4 0.784 0.0412 1.57 0.0825 2.38 0.125 2.79 0.162 2.79 0.162 4.62-2.12 0.648-2.57 0.648-2.57 1-5z" fill="#2B1F17"/>
<path transform="translate(533 69.7)" d="m0 0c3.06 0.337 5.65-0.121 8.66-0.707 2.38 0.438 2.38 0.438 4 1v3c-3.63 0.66-7.26 1.32-11 2 1.65 0.66 3.3 1.32 5 2v1c-1.65 0.33-3.3 0.66-5 1 0.557 0.866 0.557 0.866 1.12 1.75 0.875 2.25 0.875 2.25 0 4.5-0.557 0.866-0.557 0.866-1.12 1.75 0.639 0.268 1.28 0.536 1.94 0.812 2.06 1.19 2.06 1.19 3.06 4.19-0.938 2.19-0.938 2.19-2 4h-2v2h7v2c-1.65 0.33-3.3 0.66-5 1 0.561 2.49 0.561 2.49 2 5 3.03 1.37 3.03 1.37 6 2v1c-1.26-0.0348-2.52-0.0696-3.81-0.105-22.7-0.443-42.2 3.73-60.2 18.1-1.85 1.32-3.7 2.63-5.56 3.94-4.8 3.47-9.14 7.3-13.4 11.4-2 1.69-2 1.69-4 1.69-0.495 1.49-0.495 1.49-1 3-1.11 1.14-2.22 2.27-3.36 3.38-16.5 16.3-29.1 36.8-42.3 55.8-3.43 4.96-6.88 9.9-10.3 14.8-0.498 0.717-0.995 1.43-1.51 2.17-1.14 1.63-2.31 3.23-3.49 4.83h-1c-0.33-1.98-0.66-3.96-1-6-2.95-1.36-2.95-1.36-5.5 0.125-2.64 1.73-2.64 1.73-4 4.5-1.5 2.38-1.5 2.38-4.19 3.19l-2.31 0.188c-0.33 2.31-0.66 4.62-1 7-0.99 0.33-1.98 0.66-3 1v6c-1.65 0.33-3.3 0.66-5 1-0.33 0.99-0.66 1.98-1 3-0.66 0.33-1.32 0.66-2 1-0.433 0.99-0.433 0.99-0.875 2-1.12 2-1.12 2-3.25 2.75-0.619 0.0825-1.24 0.165-1.88 0.25 0.66 0.33 1.32 0.66 2 1h-3l-1 2c-0.33-0.66-0.66-1.32-1-2-1.9 2.97-3.35 5.51-4 9-2.31-0.33-4.62-0.66-7-1 1.31-1.5 1.31-1.5 3-3h3v-2h-2v-3h-2c0.203-1.84 0.203-1.84 1-4 2.11-1.41 2.11-1.41 4.75-2.62 0.861-0.405 1.72-0.81 2.61-1.23 2.53-1.1 5.07-2.14 7.64-3.15 0.226-2.12 0.226-2.12-1.5-3.62l-1.5-1.38c0.897-0.402 0.897-0.402 1.81-0.812 2.16-1.17 3.55-2.38 5.19-4.19l1 4v-3.38-5.62c-2.31 2.64-4.62 5.28-7 8-0.99-0.33-1.98-0.66-3-1 10.1-12 20.9-23 32-34 0.494-0.49 0.988-0.979 1.5-1.48 1.36-1.35 2.72-2.69 4.09-4.04 2.4-2.42 2.4-2.42 4.39-4.99 2.17-2.71 4.53-5.06 7-7.49 0.751-0.749 1.5-1.5 2.28-2.27 0.773-0.77 1.55-1.54 2.34-2.33 4.38-4.36 8.76-8.73 13.1-13.1 2.64-2.63 5.28-5.26 7.92-7.89 2.57-2.56 5.14-5.12 7.7-7.68 0.972-0.97 1.94-1.94 2.92-2.91 6.1-6.01 6.1-6.01 11.7-12.5 0.657-0.779 1.31-1.56 1.99-2.36h2c0.202-0.54 0.405-1.08 0.613-1.64 1.95-3.33 4.72-5.64 7.57-8.18 1.18-1.07 2.36-2.14 3.54-3.21 0.566-0.513 1.13-1.03 1.72-1.55 2.95-2.71 5.76-5.56 8.55-8.42 32-32 32-32 34.7-34.7 1.52-1.53 3-3.1 4.44-4.7 3.96-2.24 6.81-1.52 11.2-0.918z" fill="#2D231C"/>
<path transform="translate(996 154)" d="m0 0c2.19 1.57 3.98 3.4 5.85 5.33 0.908 0.536 1.82 1.07 2.75 1.62 0.743 0.454 1.49 0.907 2.25 1.38v2c0.619 0.103 1.24 0.206 1.88 0.312 2.12 0.688 2.12 0.688 4.12 3.69 1.73 0.944 3.45 1.89 5.19 2.82 1.96 1.28 3.18 2.6 4.62 4.43 0.722 0.908 1.44 1.81 2.19 2.75h2c1.38 1.43 1.38 1.43 3 3.44 3.53 4.17 7.41 7.72 11.5 11.3 3.65 3.27 7.07 6.74 10.5 10.2 0.887 0.887 1.77 1.77 2.69 2.69 7.31 7.31 7.31 7.31 8.81 8.88 1.61 1.59 1.61 1.59 4 3.38 2.3 1.9 3.91 3.56 5.5 6.06v2c0.99 0.33 1.98 0.66 3 1 1.58 1.57 1.58 1.57 3.25 3.56 3.09 3.66 6.25 7.23 9.46 10.8 1.29 1.66 1.29 1.66 1.29 3.66h-3v-2c-0.598-0.0928-1.2-0.186-1.81-0.281-3.31-1.09-4.58-3.42-6.62-6.12-1.84-1.88-3.05-2.03-5.56-2.59-2.01-2.24-3.65-4.31-5-7-1.66-1.01-3.33-2.01-5-3-1.64-1.31-3.24-2.67-4.81-4.06-0.79-0.692-1.58-1.38-2.39-2.1-1.79-1.84-1.79-1.84-1.79-3.84-0.99-0.33-1.98-0.66-3-1-3.54-3.11-5.41-5.6-7-10-1.98-1.04-1.98-1.04-4.06-1.75-1.94-1.25-1.94-1.25-2.69-3.88-0.0825-0.784-0.165-1.57-0.25-2.38-0.99-0.33-1.98-0.66-3-1-0.66-0.99-1.32-1.98-2-3-0.66-0.33-1.32-0.66-2-1v-3c-0.949-0.289-1.9-0.577-2.88-0.875-3.12-1.12-3.12-1.12-5.12-3.12v-1h-4c-0.103-0.784-0.206-1.57-0.312-2.38-0.463-2.96-0.463-2.96-3.69-4.62v-2h-4v-2c-0.759-0.0374-1.52-0.0748-2.3-0.113-0.994-0.0657-1.99-0.131-3.01-0.199-1.48-0.087-1.48-0.087-2.99-0.176-3.09-0.585-3.57-1.37-5.7-3.51-2.6-0.505-2.6-0.505-5.44-0.562-3.74-0.168-6.31-0.525-9.56-2.44-0.99 2.31-1.98 4.62-3 7-1.98-0.33-3.96-0.66-6-1-0.33 1.98-0.66 3.96-1 6-0.99-1.98-0.99-1.98-2-4-0.949 0.0206-1.9 0.0412-2.88 0.0625-3.12-0.0625-3.12-0.0625-5.12-1.06v-3h2v-2c-1.98 0.33-3.96 0.66-6 1v3l-2-1v-2c-9.75-3.18-17.8-2.09-26.9 2.46-2.71 1.48-5.38 3-8.05 4.54-1.12 0.493-1.12 0.493-2.26 0.996-2.09 0.949-2.09 0.949-2.74 4-1.72 1.54-3.5 3.01-5.31 4.44-3.43 2.71-6.66 5.41-9.69 8.56-0.66-0.33-1.32-0.66-2-1v-2c-1.32-0.33-2.64-0.66-4-1-0.333-4.24-0.439-6.36 2-9.94 0.99-1.02 0.99-1.02 2-2.06 0.66 0.66 1.32 1.32 2 2 0.33-0.66 0.66-1.32 1-2 1.98 0.33 3.96 0.66 6 1v3c0.66 0.33 1.32 0.66 2 1 0.826-2.89 1-4.89 1-8h-3c-0.66 0.66-1.32 1.32-2 2-0.188-2.88-0.188-2.88 0-6 0.99-0.66 1.98-1.32 3-2-0.309-0.763-0.619-1.53-0.938-2.31-0.741-1.88-1.42-3.77-2.06-5.69h-2c1.17-2.88 2.35-4.34 4.62-6.56 2.72-2.23 2.72-2.23 2.38-5.44v-3c28.7-22.3 59.8-7.91 86.2 9.67z" fill="#2D231C"/>
<path transform="translate(1100,254)" d="m0 0c3.73 1.92 5.98 4.07 8.57 7.34 2.16 2.51 4.68 4.54 7.2 6.68 2.47 2.2 4.74 4.54 7.04 6.92 4.17 4.22 8.53 7.66 13.4 11.1 3.91 2.8 7.6 5.86 11.3 8.93 0.828 0.686 1.66 1.37 2.51 2.08 0.828 0.69 1.66 1.38 2.51 2.09 2.42 1.86 4.8 3.3 7.49 4.72 3.1 1.64 6.17 3.29 9.22 5.02 12.6 7.12 25.6 10.9 40.1 7.36 12.2-4.59 20.9-13.9 28.8-23.9 2.13-2.62 4.49-4.93 6.88-7.31 0.804-1.14 0.804-1.14 1.62-2.31 0.454-0.557 0.908-1.11 1.38-1.69h3c-0.0836 2.84-0.53 4.53-2.55 6.56-1.23 1.02-2.48 2.03-3.75 3.01-1.95 1.51-1.95 1.51-3.69 4.43h-2c-0.227 0.722-0.454 1.44-0.688 2.19-1.56 3.34-3.62 5.33-6.31 7.81h2 2c0.33-0.99 0.66-1.98 1-3h10v5c1.65 0.33 3.3 0.66 5 1 0.125 3.37 0.125 3.37 0 7-2 2-2 2-5.62 2.12-1.11-0.0412-2.23-0.0825-3.38-0.125v5c1.32 0.33 2.64 0.66 4 1-0.599 0.392-1.2 0.784-1.82 1.19-5.2 3.43-10.3 6.92-15.4 10.5-38.9 27.5-38.9 27.5-54.8 25.3-4.92-2.32-7.68-5.16-10-10-1.35-2.1-2.73-4.18-4.12-6.25-0.724-1.08-1.45-2.16-2.2-3.27-0.554-0.82-1.11-1.64-1.68-2.48 0.33-0.66 0.66-1.32 1-2h2c0.99-1.49 0.99-1.49 2-3 4.38-1.31 4.38-1.31 7 0-0.33-0.99-0.66-1.98-1-3 0.34-2.48 0.34-2.48 0.938-5.19 0.195-0.901 0.389-1.8 0.59-2.73 0.234-1.03 0.234-1.03 0.473-2.08-0.639-0.268-1.28-0.536-1.94-0.812-2.06-1.19-2.06-1.19-3.06-4.19-1.65-0.33-3.3-0.66-5-1v-3c-0.949-0.309-1.9-0.619-2.88-0.938-3.12-1.06-3.12-1.06-5.12-2.06-0.495 0.99-0.495 0.99-1 2-1.94-1.25-1.94-1.25-4-3-0.144-0.681-0.289-1.36-0.438-2.06-0.186-0.639-0.371-1.28-0.562-1.94-1.66-0.674-3.33-1.34-5-2-1.34-1.66-2.67-3.33-4-5-0.681-0.165-1.36-0.33-2.06-0.5-1.94-0.5-1.94-0.5-3.38-2.69-0.516-0.928-1.03-1.86-1.56-2.81-2.59-3.57-4.97-6.13-9-8-0.33-0.99-0.66-1.98-1-3h-4v-2h2c-1.31-2.93-2.66-4.83-5-7-1.67-1.67-3.33-3.33-5-5-0.866-0.846-1.73-1.69-2.62-2.56-5.38-5.52-5.38-5.52-5.38-8.44z" fill="#2E231A"/>
<path transform="translate(1450,390)" d="m0 0c0.66 0.99 1.32 1.98 2 3-0.186 0.825-0.371 1.65-0.562 2.5-0.712 2.48-0.712 2.48 0.625 4.31 2.69 1.65 4.84 1.39 7.94 1.19 1 3 1 3 1 6h13c0.495 1.49 0.495 1.49 1 3l4-1c-0.495-0.99-0.495-0.99-1-2 2.72 0.523 4.63 1.33 7.12 2.62 0.949 0.454 1.9 0.908 2.88 1.38 0.66-0.33 1.32-0.66 2-1 0.495 1.98 0.495 1.98 1 4h3v3l4-1v2c0.99-0.206 1.98-0.413 3-0.625 7.64-1.06 14.1 2.42 20.6 6 1.66 0.899 3.33 1.8 5 2.7 0.876 0.475 1.75 0.949 2.66 1.44 2.93 1.57 5.87 3.09 8.82 4.61 1.01 0.522 2.03 1.04 3.07 1.58 1.96 1.01 3.92 2.01 5.89 3.01 17.7 9.16 17.7 9.16 21 16.3 0.69 3.1 0.521 4.72 0 8-2.43 3.09-5.28 4.76-9 6-13.6 0.746-26.1-0.494-39-5v-3h2v-2c-0.804 0.0206-1.61 0.0412-2.44 0.0625-2.56-0.0625-2.56-0.0625-3.56-1.06-1.51-0.232-3.04-0.412-4.56-0.562-0.826-0.0838-1.65-0.168-2.5-0.254-0.638-0.0606-1.28-0.121-1.93-0.184-0.33-1.65-0.66-3.3-1-5-2.31-0.33-4.62-0.66-7-1-1.12-2.25-1.12-2.25-2-5 0.875-2.31 0.875-2.31 2-4 2 1 2 1 3 2v-3l-4-1h5c0.33 0.66 0.66 1.32 1 2 3.03 0.658 3.03 0.658 6 1v2h2c0.33-0.99 0.66-1.98 1-3h3c1.67-0.311 3.34-0.641 5-1v-7c-1.09 0.371-2.19 0.743-3.31 1.12-1.22 0.289-2.43 0.577-3.69 0.875-1.48-0.99-1.48-0.99-3-2-0.144-0.825-0.289-1.65-0.438-2.5-0.278-1.24-0.278-1.24-0.562-2.5-1.97-1.15-1.97-1.15-4-2-0.33-0.99-0.66-1.98-1-3h-25c-0.66 1.98-1.32 3.96-2 6-9.14 1.37-9.14 1.37-12 0-0.33-0.99-0.66-1.98-1-3-1.32-0.372-2.66-0.706-4-1-0.33-0.66-0.66-1.32-1-2-0.99-0.33-1.98-0.66-3-1v-2h2v-2c-0.99 0.66-1.98 1.32-3 2h-3v-2c-0.66-0.33-1.32-0.66-2-1h4v-2c-1.05 0.206-2.1 0.413-3.19 0.625-3.81 0.375-5.48 0.0913-8.81-1.62 0.99-0.66 1.98-1.32 3-2-0.66-0.66-1.32-1.32-2-2 0.0234-2.38 0.0234-2.38 0.375-5.12 0.111-0.91 0.222-1.82 0.336-2.76 0.0954-0.699 0.191-1.4 0.289-2.12h-8v-2h-2v6l-4 2c-2-1.19-2-1.19-4-3-0.25-2.69-0.25-2.69 0-5h5v-4c1.13 0.0206 2.27 0.0412 3.44 0.0625 4.5-0.00804 9.16-0.0414 13.6-1.06 0.33-0.66 0.66-1.32 1-2z" fill="#2D231C"/>
<path transform="translate(897,163)" d="m0 0h2v2h3c0.99 2.47 0.99 2.47 2 5-2.52 3.12-3.73 3.95-7.75 4.75-1.07 0.0825-2.14 0.165-3.25 0.25v8h-4c-0.17 0.626-0.34 1.25-0.516 1.9-0.364 1.23-0.364 1.23-0.734 2.48-0.232 0.812-0.464 1.62-0.703 2.46-1.31 2.72-2.3 3.02-5.05 4.16-1.71 1.09-3.39 2.22-5.06 3.38-1.29 0.878-1.29 0.878-2.6 1.77-2.25 1.78-3.75 3.48-5.34 5.85h2v6l-2 1c-0.33-0.99-0.66-1.98-1-3-0.33 0.99-0.66 1.98-1 3-0.33-1.65-0.66-3.3-1-5-1.51 4.54-2.06 7.36-1 12l-2 2c-1.98-0.66-3.96-1.32-6-2 0.66-0.33 1.32-0.66 2-1-0.66-0.33-1.32-0.66-2-1v-2l-2 1c-0.33 0.99-0.66 1.98-1 3h-2v3c-1.49-0.495-1.49-0.495-3-1-0.66 2.64-1.32 5.28-2 8h-5c0.66 1.32 1.32 2.64 2 4-1.98 0.99-3.96 1.98-6 3-1.56-1.25-1.56-1.25-3-3 0.312-2.19 0.312-2.19 1-4-0.99 0.66-1.98 1.32-3 2-0.365 3.13-0.365 3.13-0.188 6.62 0.0271 1.19 0.0541 2.38 0.082 3.6 0.0522 1.37 0.0522 1.37 0.105 2.77h-6v3c-1.01-0.178-1.01-0.178-2.05-0.359-5.64-1.02-5.64-1.02-10.6 1.3-0.454 0.681-0.908 1.36-1.38 2.06-0.33-1.32-0.66-2.64-1-4h-3v4c-3.73-0.498-5.81-0.875-9-3h-4c-0.186-1.18-0.186-1.18-0.375-2.38-0.416-2.77-0.416-2.77-2.62-4.62-3.63-1.14-7.3-2.11-11-3v-2h7v2c2.48-0.99 2.48-0.99 5-2 0.33 0.33 0.66 0.66 1 1 0.99-0.495 0.99-0.495 2-1-0.33-0.99-0.66-1.98-1-3 0.935-0.34 1.87-0.681 2.83-1.03 4.4-1.62 8.79-3.28 13.2-4.97 1.17-0.45 1.17-0.45 2.36-0.908 17.8-6.93 36-16.2 48.2-31.4 1.63-1.88 3.41-3.39 5.32-4.98 4-3.38 7.04-7.24 10.2-11.4 2.38-2.9 4.9-5.07 7.9-7.31l2 2c0.619-0.66 1.24-1.32 1.88-2 2.12-2 2.12-2 4.12-2 0.464-0.959 0.464-0.959 0.938-1.94 1.06-2.06 1.06-2.06 2.06-3.06z" fill="#2E231A"/>
<path transform="translate(533 69.7)" d="m0 0c3.06 0.337 5.65-0.121 8.66-0.707 2.38 0.438 2.38 0.438 4 1v3c-3.63 0.66-7.26 1.32-11 2 1.65 0.66 3.3 1.32 5 2v1c-1.65 0.33-3.3 0.66-5 1 0.557 0.866 0.557 0.866 1.12 1.75 0.875 2.25 0.875 2.25 0 4.5-0.557 0.866-0.557 0.866-1.12 1.75 0.639 0.268 1.28 0.536 1.94 0.812 2.06 1.19 2.06 1.19 3.06 4.19-0.938 2.19-0.938 2.19-2 4h-2v2h7v2c-1.65 0.33-3.3 0.66-5 1 0.561 2.49 0.561 2.49 2 5 3.03 1.37 3.03 1.37 6 2v1c-1.26-0.0348-2.52-0.0696-3.81-0.105-16.2-0.314-30.2 1.59-45.2 8.11-0.33-1.32-0.66-2.64-1-4-0.33 0.639-0.66 1.28-1 1.94-3.02 3.12-5.74 2.78-10 3.06-0.33 0.99-0.66 1.98-1 3h-3c-0.33 0.66-0.66 1.32-1 2h-2v3c-0.99-0.33-1.98-0.66-3-1-1.33-0.342-2.66-0.678-4-1 1.56-3.77 3.91-6.11 6.81-8.94 0.852-0.834 1.7-1.67 2.58-2.53 0.86-0.837 1.72-1.67 2.61-2.54 1.67-1.66 3.34-3.33 5-5 1.67-1.67 3.33-3.33 5-5 0.828-0.828 1.66-1.66 2.51-2.51 19.5-19.5 19.5-19.5 22.2-22.2 1.52-1.53 3-3.1 4.44-4.7 3.96-2.24 6.81-1.52 11.2-0.918z" fill="#2F2319"/>
<path transform="translate(1300,272)" d="m0 0c4.24-0.364 6.58 0.461 10 3v2c1.98 0.66 3.96 1.32 6 2v2c1.23 0.29 1.23 0.29 2.48 0.586 4.7 1.89 8.01 4.77 11.8 8.04 0.754 0.633 1.51 1.27 2.28 1.92 4.57 3.85 9.09 7.75 13.5 11.8 1.81 1.64 3.65 3.23 5.5 4.82 2.7 2.35 5.33 4.76 7.93 7.21 0.971 0.915 0.971 0.915 1.96 1.85 1.29 1.22 2.57 2.44 3.85 3.66 3.77 3.56 7.65 6.77 11.9 9.81 2.5 1.9 4.58 4.09 6.77 6.34 0.66 0.33 1.32 0.66 2 1v2c1.04 0.331 1.04 0.331 2.1 0.668 3.61 1.66 6.33 4.03 9.27 6.64 3.51 3.07 6.89 5.98 10.9 8.44 2.75 2.25 2.75 2.25 3.88 5.88-0.125 3.38-0.125 3.38-1.56 5.31-0.516 0.351-1.03 0.701-1.56 1.06-0.309-1.21-0.309-1.21-0.625-2.44-0.454-0.846-0.908-1.69-1.38-2.56-2.94-0.671-2.94-0.671-6-1-1.88-1.44-1.88-1.44-3-3v-2c-0.598-0.0864-1.2-0.173-1.81-0.262-2.8-0.945-3.54-2.13-5.19-4.55-0.517-0.721-1.03-1.44-1.57-2.18-0.71-0.992-0.71-0.992-1.43-2-2.51-3.08-3.44-3.88-7.38-4.75-5.11-1.76-6.68-4.92-9.62-9.25-1.93-2.4-3.96-4.7-6-7-0.804-0.969-1.61-1.94-2.44-2.94-3.32-2.68-5.41-2.47-9.56-2.06v-3h-2c-0.0619-0.619-0.124-1.24-0.188-1.88-0.641-2.4-0.641-2.4-3.38-3.38-0.804-0.248-1.61-0.495-2.44-0.75v-2h-4v-3h-2c-1.69-1.98-3.35-3.98-5-6-0.66-0.33-1.32-0.66-2-1v-2c-2.64 0.66-5.28 1.32-8 2-1-2-1-2-0.438-3.88 0.632-2.16 0.632-2.16-0.312-4.31-1.2-2.13-1.2-2.13-4.25-2.81v-2c-0.763 0.33-1.53 0.66-2.31 1-2.69 1-2.69 1-5.69 1v2c-0.99 0.33-1.98 0.66-3 1-2-1.38-2-1.38-4-3-0.99-0.33-1.98-0.66-3-1v-3c-1.44-1.69-1.44-1.69-3-3 3.38-0.845 5.67-1.11 9 0-0.723-3.3-0.723-3.3-4.06-4.69-0.969-0.433-1.94-0.866-2.94-1.31v-5z" fill="#2C221B"/>
<path transform="translate(651,101)" d="m0 0c0.66 0.33 1.32 0.66 2 1v2c1.02 0.296 1.02 0.296 2.05 0.598 4.06 1.93 6.86 4.74 10.1 7.84 0.657 0.624 1.31 1.25 1.99 1.89 6.61 6.3 13 12.8 19.4 19.3 2.71 2.66 5.56 5.06 8.48 7.46 1.96 1.94 1.96 1.94 3.86 4.81 2.27 3.36 4.88 6.04 7.8 8.82 4.7 4.58 8.92 9.35 13 14.5 2.62 3.21 5.37 6.27 8.18 9.31 0.465 0.505 0.93 1.01 1.41 1.53 1.8 1.95 3.61 3.87 5.54 5.69 1.18 1.28 1.18 1.28 1.18 3.28 0.639 0.268 1.28 0.536 1.94 0.812 2.06 1.19 2.06 1.19 3.06 4.19 1.32 0.702 2.65 1.37 4 2 2.17 2.01 4.01 4.21 5.88 6.5 2.45 2.91 4.83 4.58 8.12 6.5 0.303 0.626 0.606 1.25 0.918 1.9 1.25 2.42 2.46 3.44 4.64 5.04 0.705 0.514 1.41 1.03 2.14 1.56 2.33 1.52 4.69 2.76 7.18 4 3.37 1.78 3.98 2.2 5.69 5.81 0.217 1.33 0.217 1.33 0.438 2.69-0.66 0.33-1.32 0.66-2 1v-2c-0.99 0.33-1.98 0.66-3 1-0.66-0.66-1.32-1.32-2-2-3.54-2.26-7.22-4.15-11-6-1.33-0.667-2.67-1.33-4-2v-3c-1.18-0.371-1.18-0.371-2.38-0.75-2.95-1.4-3.53-2.26-4.62-5.25h-2c-1.66-1.64-1.66-1.64-3.5-3.81-0.913-1.06-0.913-1.06-1.84-2.14-1.66-2.04-1.66-2.04-3.66-5.04-1.49-0.495-1.49-0.495-3-1v-4c-0.557-0.248-1.11-0.495-1.69-0.75-2.75-1.49-5-3.13-7.31-5.25v-3h-2v-2c-1.14-0.0928-1.14-0.0928-2.31-0.188-2.69-0.812-2.69-0.812-4.44-3.12-1.25-2.69-1.25-2.69-1.62-4.81-0.952-2.85-3.07-3.47-5.62-4.88-0.33-0.66-0.66-1.32-1-2-0.99-0.495-0.99-0.495-2-1v-2c-0.619-0.206-1.24-0.412-1.88-0.625-2.96-1.92-3.05-4.09-4.12-7.38-2.03-1.73-2.03-1.73-4-3v-2h-3v-2c-0.681-0.165-1.36-0.33-2.06-0.5-3.68-1.88-5.62-4.33-8.23-7.48-1.81-2.21-1.81-2.21-4.52-4.71-2.19-2.31-2.19-2.31-3.25-5-0.693-2.48-0.693-2.48-2.94-3.19-2-1.12-2-1.12-3.25-4.75-0.247-1.11-0.495-2.23-0.75-3.38-1.98-0.33-3.96-0.66-6-1-0.33-1.32-0.66-2.64-1-4h-3v-2c-0.66-0.66-1.32-1.32-2-2-0.66-0.66-1.32-1.32-2-2v-2h-6c-0.8-3.29-1.1-4.71 0-8z" fill="#2D231C"/>
<path transform="translate(996 154)" d="m0 0c0.537 0.401 1.07 0.802 1.63 1.21v1c-6.05-0.391-6.05-0.391-8-1-0.667-1.33-1.33-2.67-2-4-2-0.842-2-0.842-4.31-1.12-2.56-0.464-4.71-0.883-7.12-1.88-4.05-1.58-8.3-2.22-12.6-3v-4c-1.6-0.647-3.21-1.29-4.81-1.94-0.893-0.36-1.79-0.719-2.71-1.09-1.81-0.709-3.64-1.36-5.48-1.97 0.66 1.32 1.32 2.64 2 4h2c0.66 1.98 1.32 3.96 2 6-0.99 0.33-1.98 0.66-3 1-0.66-0.33-1.32-0.66-2-1v-3h-4v3c-1.44 0.506-2.87 1-4.31 1.5-0.801 0.278-1.6 0.557-2.43 0.844-2.26 0.656-2.26 0.656-5.26 0.656v-2h-2c-0.33 0.66-0.66 1.32-1 2h-8c-0.66 2.64-1.32 5.28-2 8-2.07-1.03-4.13-2.07-6.19-3.12-1.63-0.947-1.63-0.947-2.81-0.875h-4c0.186-0.743 0.371-1.49 0.562-2.25 0.436-2.74 0.19-4.14-0.562-6.75 31.2-20 57.8-9.1 86.4 9.79z" fill="#2F2319"/>
<path transform="translate(1434,377)" d="m0 0c3.75 1.31 6.93 3.14 10.3 5.27 10.4 6.63 21.2 12.2 32.2 17.8 1.33 0.678 2.66 1.36 3.99 2.03 0.649 0.331 1.3 0.662 1.97 1 8.65 4.43 17.2 9.14 25.6 13.9-2.72 0.907-5.16 1.64-8 2-1.48-0.99-1.48-0.99-3-2h-3c-0.66-1.32-1.32-2.64-2-4-0.495 0.99-0.495 0.99-1 2-0.66-1.32-1.32-2.64-2-4l-2 1c-1.68-0.969-3.35-1.97-5-3-2.32-0.185-2.32-0.185-5 2-0.36-0.494-0.719-0.987-1.09-1.5-2.8-2.21-4.97-1.73-8.47-1.57-3.5 0.152-3.5 0.152-6.44 0.0625-0.66-0.66-1.32-1.32-2-2 0.33-1.32 0.66-2.64 1-4-2.97-0.33-5.94-0.66-9-1-1-6.75-1-6.75-1-9-0.99 0.495-0.99 0.495-2 1-1.49 0.251-3 0.454-4.5 0.625-1.19 0.143-1.19 0.143-2.41 0.289-2.09 0.0859-2.09 0.0859-4.09-0.914v-2h-3v-2h3v-2h-4c-0.33-1.98-0.66-3.96-1-6h3c-0.33-1.32-0.66-2.64-1-4z" fill="#291F16"/>
<path transform="translate(783,246)" d="m0 0v3l-4 1v2c1.32-0.33 2.64-0.66 4-1v2h4v2h-3c0.33 1.98 0.66 3.96 1 6 0.99-0.33 1.98-0.66 3-1 2.69 0.438 2.69 0.438 5 1 0.268-0.784 0.536-1.57 0.812-2.38 1.19-2.62 1.19-2.62 4.19-4.62 0.66-0.99 1.32-1.98 2-3 1.32 0.33 2.64 0.66 4 1-0.165 0.763-0.33 1.53-0.5 2.31-0.591 2.72-0.591 2.72-0.5 5.69h-3c-0.99 0.66-1.98 1.32-3 2 1.65 0.33 3.3 0.66 5 1-3.4 2.26-6.75 3.31-10.6 4.44-0.745 0.217-1.49 0.435-2.26 0.659-5.41 1.53-10.8 2.77-16.4 3.78-0.702 0.132-1.4 0.264-2.13 0.4-3.8 0.646-6.93 0.927-10.6-0.275-3.5-2.93-5.88-5.52-7-10 0.375-2.81 0.375-2.81 1-5 1.65 0.33 3.3 0.66 5 1-0.33 1.32-0.66 2.64-1 4 1.24-0.248 1.24-0.248 2.5-0.5 3.91-0.559 7.55-0.568 11.5-0.5 0.33-0.66 0.66-1.32 1-2-0.99-0.33-1.98-0.66-3-1 0.33-0.99 0.66-1.98 1-3h4v-4h-4c-0.66 0.66-1.32 1.32-2 2-0.33-1.32-0.66-2.64-1-4 5.44-3.63 8.49-4.28 15-3z" fill="#2F2319"/>
<path transform="translate(1190,336)" d="m0 0h11c0.66 2.31 1.32 4.62 2 7-3.75 1.12-3.75 1.12-6 0 0.495 2.48 0.495 2.48 1 5 0.681-0.144 1.36-0.289 2.06-0.438 3.3-0.632 6.61-1.11 9.94-1.56-1.18 3.54-1.78 3.73-4.93 5.45-0.795 0.437-1.59 0.874-2.41 1.32-0.837 0.447-1.67 0.895-2.54 1.36-0.829 0.455-1.66 0.91-2.51 1.38-7.63 4.16-13.8 5.61-22.6 4.5-4.87-2.28-7.78-5.14-10-10-0.516-0.804-1.03-1.61-1.56-2.44-1.45-2.58-2.02-4.65-2.44-7.56h3v2c0.99-0.33 1.98-0.66 3-1v2c0.99-0.33 1.98-0.66 3-1 0.99 0.33 1.98 0.66 3 1v2h16c1.08-5.48 1.08-5.48 1-9z" fill="#2F2319"/>
<path transform="translate(1100,254)" d="m0 0c3.73 1.92 5.98 4.07 8.57 7.34 2.16 2.51 4.68 4.54 7.2 6.68 2.47 2.2 4.74 4.54 7.04 6.92 4.17 4.22 8.53 7.66 13.4 11.1 3.91 2.8 7.6 5.86 11.3 8.93 0.828 0.686 1.66 1.37 2.51 2.08 0.816 0.687 1.63 1.37 2.47 2.08 2.6 1.97 5.18 3.39 8.09 4.86 7.54 4.08 7.54 4.08 9.44 8.06 0 2.82-0.431 5.2-1 8-3-2-3-2-4-5-1.65-0.33-3.3-0.66-5-1v-3c-0.949-0.309-1.9-0.619-2.88-0.938-3.12-1.06-3.12-1.06-5.12-2.06-0.495 0.99-0.495 0.99-1 2-1.94-1.25-1.94-1.25-4-3-0.144-0.681-0.289-1.36-0.438-2.06-0.186-0.639-0.371-1.28-0.562-1.94-1.66-0.674-3.33-1.34-5-2-1.34-1.66-2.67-3.33-4-5-0.681-0.165-1.36-0.33-2.06-0.5-1.94-0.5-1.94-0.5-3.38-2.69-0.516-0.928-1.03-1.86-1.56-2.81-2.59-3.57-4.97-6.13-9-8-0.33-0.99-0.66-1.98-1-3h-4v-2h2c-1.31-2.93-2.66-4.83-5-7-1.67-1.67-3.33-3.33-5-5-0.866-0.846-1.73-1.69-2.62-2.56-5.38-5.52-5.38-5.52-5.38-8.44z" fill="#2E241C"/>
<path transform="translate(798,231)" d="m0 0c2 1 2 1 5 3h2v2h-3v3c1.65-0.33 3.3-0.66 5-1v-3c1.41-0.224 2.83-0.428 4.25-0.625 0.789-0.116 1.58-0.232 2.39-0.352 2.68-0.0266 4.09 0.611 6.36 1.98-0.33 1.65-0.66 3.3-1 5h3c-0.495-1.49-0.495-1.49-1-3 0.66-0.66 1.32-1.32 2-2 0.648-2.57 0.648-2.57 1-5h5c0.495 1.98 0.495 1.98 1 4h2c0.495 4.46 0.495 4.46 1 9h-6v3c-0.675-0.119-1.35-0.237-2.05-0.359-5.64-1.02-5.64-1.02-10.6 1.3-0.681 1.02-0.681 1.02-1.38 2.06-0.33-1.32-0.66-2.64-1-4h-3v4c-3.73-0.498-5.81-0.875-9-3h-4c-0.124-0.784-0.247-1.57-0.375-2.38-0.416-2.77-0.416-2.77-2.62-4.62-3.63-1.14-7.3-2.11-11-3v-2h7v2c1.65-0.66 3.3-1.32 5-2 0.33 0.33 0.66 0.66 1 1 0.66-0.33 1.32-0.66 2-1-0.33-0.99-0.66-1.98-1-3 0.66-0.33 1.32-0.66 2-1z" fill="#2E231C"/>
<path transform="translate(495,111)" d="m0 0 4 2c-1.49 4.31-4.65 5.96-8.38 8.19-9.98 6.2-19.1 13.1-27.7 21.2-1.96 1.65-1.96 1.65-3.96 1.65-0.33 0.99-0.66 1.98-1 3-3.1 3.62-5.17 5.59-10 6 0.0206-0.804 0.0412-1.61 0.0625-2.44 0.234-2.5 0.234-2.5-1.06-3.56 1.42-1.66 2.85-3.32 4.27-4.98 1.14-1.34 2.27-2.69 3.39-4.05 0.785-0.947 0.785-0.947 1.59-1.91 0.48-0.587 0.959-1.17 1.45-1.78 1.3-1.29 1.3-1.29 3.3-1.29 0.251-0.592 0.503-1.18 0.762-1.79 2.12-3.79 5.49-6.11 9.24-8.21 2.88 0 2.88 0 5 1 0.66 0.66 1.32 1.32 2 2v-3h2c0.66-1.32 1.32-2.64 2-4h1c0.99-0.66 1.98-1.32 3-2 1.76-0.217 1.76-0.217 3.56-0.438 1.13-0.186 2.27-0.371 3.44-0.562 2.18-2.68 2.18-2.68 2-5z" fill="#2E231C"/>
<path transform="translate(527,69)" d="m0 0c0.58 0.0838 1.16 0.168 1.76 0.254 4.72 0.615 8.53 0.622 13.2-0.254 2.38 0.438 2.38 0.438 4 1v3c-3.63 0.66-7.26 1.32-11 2 2.48 0.99 2.48 0.99 5 2v1c-1.65 0.33-3.3 0.66-5 1 0.371 0.578 0.742 1.16 1.12 1.75 0.875 2.25 0.875 2.25 0 4.5-0.371 0.578-0.742 1.16-1.12 1.75 0.639 0.268 1.28 0.536 1.94 0.812 2.06 1.19 2.06 1.19 3.06 4.19-0.938 2.19-0.938 2.19-2 4h-2v2h7v2c-4.33 1.27-6.83 0.595-11-1-1.33-0.35-2.66-0.691-4-1-0.33 0.66-0.66 1.32-1 2-1.65-0.33-3.3-0.66-5-1-0.33-1.65-0.66-3.3-1-5 0.577-0.248 1.15-0.495 1.75-0.75 2.38-1.19 2.38-1.19 4.38-3.38 0.619-0.619 1.24-1.24 1.88-1.88h2v-4h-2v-3c-0.99-0.33-1.98-0.66-3-1 0.66-0.66 1.32-1.32 2-2-0.99-0.99-1.98-1.98-3-3 0.66-1.98 1.32-3.96 2-6z" fill="#2E231C"/>
<path transform="translate(371,227)" d="m0 0c1.32 2.63 0.748 3.8 0.0625 6.62-0.195 0.817-0.389 1.63-0.59 2.48-0.234 0.94-0.234 0.94-0.473 1.9-0.66-0.33-1.32-0.66-2-1-0.33 0.33-0.66 0.66-1 1-1.33 0.362-2.66 0.697-4 1 1.95 1.95 3.53 2.85 6 4-0.33 0.66-0.66 1.32-1 2-1.07 0.144-2.14 0.289-3.25 0.438-3.8 0.571-5.6 1.49-8.75 3.56-3.45 1.6-5.09 2-9 2-0.0825 0.598-0.165 1.2-0.25 1.81-0.966 2.82-2.24 3.67-4.75 5.19h-2c-0.248 0.536-0.495 1.07-0.75 1.62-1.55 2.94-3.38 5.63-5.25 8.38 2.64 0.33 5.28 0.66 8 1v2c-1.32-0.33-2.64-0.66-4-1-0.33 0.66-0.66 1.32-1 2-0.577-0.165-1.15-0.33-1.75-0.5-2.52-0.645-2.52-0.645-6.25-0.5-0.124 1.18-0.124 1.18-0.25 2.38-0.75 2.62-0.75 2.62-2.5 3.62-1.11 0.495-1.11 0.495-2.25 1-3.01 2.79-5.64 5.64-8 9-0.66-0.33-1.32-0.66-2-1 3.31-5.79 7.3-10.3 12-15 1.08-1.39 1.08-1.39 2.19-2.81 0.598-0.722 1.2-1.44 1.81-2.19h2c0.231-0.559 0.461-1.12 0.699-1.7 1.64-2.91 3.71-4.86 6.11-7.18 2.89-2.82 5.68-5.59 8.19-8.75 0.66-0.784 1.32-1.57 2-2.38h2c0.66-1.32 1.32-2.64 2-4h2c0.0928-0.928 0.0928-0.928 0.188-1.88 0.812-2.12 0.812-2.12 3.25-3.38 2.56-0.75 2.56-0.75 4.56-0.75 0.66-0.825 1.32-1.65 2-2.5 0.66-0.825 1.32-1.65 2-2.5h2c0.66-1.32 1.32-2.64 2-4z" fill="#2B1F17"/>
<path transform="translate(1466,397)" d="m0 0c5.46 0.377 9.5 2.59 14.2 5.19 0.749 0.406 1.5 0.811 2.27 1.23 2.19 1.19 4.37 2.38 6.54 3.58 2.02 1.1 4.04 2.21 6.06 3.31 0.843 0.463 1.69 0.926 2.55 1.4 3.42 1.85 6.89 3.57 10.4 5.29-2.72 0.907-5.16 1.64-8 2-0.99-0.66-1.98-1.32-3-2h-3c-0.66-1.32-1.32-2.64-2-4-0.33 0.66-0.66 1.32-1 2-0.66-1.32-1.32-2.64-2-4l-2 1c-1.68-0.969-3.35-1.97-5-3-2.32-0.185-2.32-0.185-5 2-0.36-0.494-0.719-0.987-1.09-1.5-2.8-2.21-4.97-1.73-8.47-1.57-3.5 0.152-3.5 0.152-6.44 0.0625-0.66-0.66-1.32-1.32-2-2 0.66-2.31 1.32-4.62 2-7 0.639-0.144 1.28-0.289 1.94-0.438 2.04-0.373 2.04-0.373 3.06-1.56z" fill="#281E15"/>
<path transform="translate(1270,289)" d="m0 0c2.38 0.188 2.38 0.188 5 1 1.5 2.31 1.5 2.31 2 5-1.19 2.31-1.19 2.31-3 4h-3c-1.34 0.306-2.68 0.635-4 1v5c-2.31 0.33-4.62 0.66-7 1v5h-6c-0.982-4.05-1.08-7.84-1-12h-9c-0.33-1.98-0.66-3.96-1-6 3.13-1.04 3.99-0.934 7 0v3h4c0.33-0.66 0.66-1.32 1-2v3h13c0.66-2.64 1.32-5.28 2-8z" fill="#2E231C"/>
<path transform="translate(1136,294)" d="m0 0c1.94 0.375 1.94 0.375 4 1 0.33 0.66 0.66 1.32 1 2 0.66-0.33 1.32-0.66 2-1 2.19-0.938 2.19-0.938 5-1 1.79 1.27 3.31 2.74 4.9 4.25 2.44 2.04 4.96 3.37 7.79 4.81 7.41 3.95 7.41 3.95 9.31 7.94 0 2.82-0.431 5.2-1 8-3-2-3-2-4-5-1.65-0.33-3.3-0.66-5-1v-3c-0.949-0.309-1.9-0.619-2.88-0.938-3.12-1.06-3.12-1.06-5.12-2.06-0.33 0.66-0.66 1.32-1 2-1.94-1.25-1.94-1.25-4-3-0.144-0.681-0.289-1.36-0.438-2.06-0.186-0.639-0.371-1.28-0.562-1.94-1.66-0.674-3.33-1.34-5-2-2.03-2.25-3.65-4.29-5-7z" fill="#2C221B"/>
<path transform="translate(897,163)" d="m0 0h2v2h3c0.66 1.65 1.32 3.3 2 5-2.52 3.12-3.73 3.95-7.75 4.75-1.07 0.0825-2.14 0.165-3.25 0.25v3h-2v2c-2.97 0.66-5.94 1.32-9 2-0.33-0.66-0.66-1.32-1-2-0.99-0.33-1.98-0.66-3-1 1.58-4.27 4.51-6.27 8-9 0.66 0.66 1.32 1.32 2 2 0.928-0.99 0.928-0.99 1.88-2 2.12-2 2.12-2 4.12-2 0.309-0.639 0.619-1.28 0.938-1.94 1.06-2.06 1.06-2.06 2.06-3.06z" fill="#2F241A"/>
<path transform="translate(1284,288)" d="m0 0h10c0.33 0.66 0.66 1.32 1 2 2.32 0.407 4.66 0.744 7 1-0.33 1.32-0.66 2.64-1 4-1.65 0.33-3.3 0.66-5 1 3.11 1.21 3.11 1.21 7 1v2c-4.75 1.12-4.75 1.12-7 0v2c-6.38 1.64-10.3 0.0516-16-3 0.66-1.98 1.32-3.96 2-6h3c-0.33-1.32-0.66-2.64-1-4z" fill="#2E241D"/>
<path transform="translate(1233,325)" d="m0 0h6c-0.381 2.42-0.676 3.69-2.49 5.4-0.627 0.414-1.25 0.829-1.9 1.26-0.692 0.465-1.38 0.931-2.1 1.41-0.728 0.473-1.46 0.946-2.21 1.43-0.708 0.473-1.42 0.946-2.15 1.43-1.39 0.929-2.79 1.85-4.19 2.77-1.26 0.83-2.52 1.67-3.76 2.53-4.01 2.77-4.01 2.77-6.21 2.77v-2c-0.99 0.33-1.98 0.66-3 1-2.69-0.438-2.69-0.438-5-1 0.33-1.32 0.66-2.64 1-4l4-1c-0.99-0.66-1.98-1.32-3-2 6.75-1 6.75-1 9-1v-2h12c0.33-0.66 0.66-1.32 1-2h3v-4-1z" fill="#2B1F17"/>
<path transform="translate(955,134)" d="m0 0c15.2 2.17 31.3 12.4 43 22-6.05-0.391-6.05-0.391-8-1-0.667-1.33-1.33-2.67-2-4-2-0.842-2-0.842-4.31-1.12-2.56-0.464-4.71-0.883-7.12-1.88-4.05-1.58-8.3-2.22-12.6-3v-4c-4.95-1.98-4.95-1.98-10-4 0.33-0.99 0.66-1.98 1-3z" fill="#2C2117"/>
<path transform="translate(466,126)" d="m0 0 4 4c-0.908 0.412-1.81 0.825-2.75 1.25-3.05 1.64-4.96 3.2-7.25 5.75h3c0.688 1.81 0.688 1.81 1 4-1.31 1.75-1.31 1.75-3 3h-2c-0.33 0.99-0.66 1.98-1 3-3.1 3.62-5.17 5.59-10 6 0.0206-0.804 0.0412-1.61 0.0625-2.44 0.234-2.5 0.234-2.5-1.06-3.56 1.42-1.66 2.85-3.32 4.27-4.98 1.14-1.34 2.27-2.69 3.39-4.05 0.523-0.632 1.05-1.26 1.59-1.91 0.719-0.88 0.719-0.88 1.45-1.78 1.3-1.29 1.3-1.29 3.3-1.29 0.268-0.598 0.536-1.2 0.812-1.81 1.17-2.16 2.38-3.55 4.19-5.19z" fill="#2A1E17"/>
<path transform="translate(1540,434)" d="m0 0c9.74 3.66 21.5 8.27 27.3 17.3 0.715 1.73 0.715 1.73 0.715 4.73h-7c-0.0206-0.598-0.0412-1.2-0.0625-1.81-0.819-2.62-0.819-2.62-4.44-3.62-1.15-0.516-2.31-1.03-3.5-1.56-0.938-2.69-0.938-2.69-1-5-2.64-0.33-5.28-0.66-8-1v-4c-1.94-2.19-1.94-2.19-4-4v-1z" fill="#271D14"/>
<path transform="translate(1377,359)" d="m0 0h7v2c0.99 0.33 1.98 0.66 3 1v7c1.65 0.33 3.3 0.66 5 1 0.33 0.99 0.66 1.98 1 3h8v5h-14v-5h-6c-1.1-3.29-0.8-4.71 0-8-2.47-0.99-2.47-0.99-5-2 0.33-1.32 0.66-2.64 1-4z" fill="#2D231C"/>
<path transform="translate(783,246)" d="m0 0v3l-4 1v2c1.32-0.33 2.64-0.66 4-1v2h4v2h-3c-0.33 1.32-0.66 2.64-1 4-1.32-0.33-2.64-0.66-4-1v3c-1.65 0.33-3.3 0.66-5 1-0.33-0.99-0.66-1.98-1-3-0.99-0.33-1.98-0.66-3-1 0.33-0.99 0.66-1.98 1-3h4v-4h-4c-0.66 0.66-1.32 1.32-2 2-0.33-1.32-0.66-2.64-1-4 5.44-3.63 8.49-4.28 15-3z" fill="#2E231C"/>
<path transform="translate(350,248)" d="m0 0v3h-3c-0.0825 0.598-0.165 1.2-0.25 1.81-0.966 2.82-2.24 3.67-4.75 5.19h-2c-0.248 0.536-0.495 1.07-0.75 1.62-1.55 2.94-3.38 5.63-5.25 8.38 2.64 0.33 5.28 0.66 8 1v2c-1.32-0.33-2.64-0.66-4-1-0.33 0.66-0.66 1.32-1 2-0.577-0.165-1.15-0.33-1.75-0.5-2.52-0.645-2.52-0.645-6.25-0.5-0.0825 0.784-0.165 1.57-0.25 2.38-0.75 2.62-0.75 2.62-2.5 3.62-0.743 0.33-1.49 0.66-2.25 1-3.01 2.79-5.64 5.64-8 9-0.66-0.33-1.32-0.66-2-1 3.31-5.79 7.3-10.3 12-15 0.722-0.928 1.44-1.86 2.19-2.81 0.598-0.722 1.2-1.44 1.81-2.19h2c0.229-0.557 0.459-1.11 0.695-1.69 1.66-2.95 3.76-4.96 6.18-7.31 0.864-0.846 1.73-1.69 2.62-2.56 0.828-0.804 1.66-1.61 2.51-2.44 0.724-0.763 1.45-1.53 2.2-2.31 1.8-1.69 1.8-1.69 3.8-1.69z" fill="#2D221B"/>
<path transform="translate(562 59.9)" d="m0 0c0.845-0.00387 1.69-0.00773 2.56-0.0117 1.22 0.00193 1.22 0.00193 2.46 0.00391 0.729 0.00113 1.46 0.00226 2.21 0.00342 1.96 0.129 1.96 0.129 4.96 1.13 1.67 0.0387 3.33 0.045 5 0 0.495 1.48 0.495 1.48 1 3 0.99 0.33 1.98 0.66 3 1-2.4-0.142-4.79-0.288-7.19-0.438-1.01-0.059-1.01-0.059-2.04-0.119-3.68-0.233-7.17-0.714-10.8-1.44-1.73-0.0881-3.46-0.13-5.19-0.125-0.86-0.00258-1.72-0.00516-2.61-0.00781-2.25-0.0096-2.25-0.0096-4.21 1.13 0.33 0.66 0.66 1.32 1 2h-2c-0.33 0.66-0.66 1.32-1 2-0.33-0.33-0.66-0.66-1-1h-3-11c0.66-0.66 1.32-1.32 2-2h4v-2c6.24-3.9 14.7-3.16 21.8-3.12z" fill="#2D221B"/>
<path transform="translate(1128,283)" d="m0 0c2.6-0.431 4.37-0.398 6.63 1.03 1.78 1.44 3.49 2.93 5.18 4.47 0.597 0.525 1.19 1.05 1.81 1.59 1.47 1.29 2.92 2.6 4.38 3.91-0.66 0.66-1.32 1.32-2 2 0.33 0.66 0.66 1.32 1 2-2.47-0.495-2.47-0.495-5-1v-2c-1.09 0.103-2.19 0.206-3.31 0.312-1.22-0.103-2.43-0.206-3.69-0.312-1.75-2.31-1.75-2.31-3-5-0.578-0.516-1.15-1.03-1.75-1.56-0.412-0.474-0.825-0.949-1.25-1.44 0.312-2.19 0.312-2.19 1-4z" fill="#2F2319"/>
<path transform="translate(1260,271)" d="m0 0c0.593 0.317 1.19 0.634 1.8 0.961 2.7 1.27 5.26 1.64 8.2 2.04-1.95 3.71-3.25 5.24-7 7-0.712 1.05-0.712 1.05-1.44 2.12-1.56 1.88-1.56 1.88-4.25 2.12-0.763-0.0825-1.53-0.165-2.31-0.25 0.33-1.32 0.66-2.64 1-4h-4v-4c1.75-1.7 1.75-1.7 4-3.25 0.743-0.521 1.48-1.04 2.25-1.58 0.578-0.387 1.15-0.773 1.75-1.17z" fill="#2D231C"/>
<path transform="translate(1106,289)" d="m0 0h12c-0.33 1.32-0.66 2.64-1 4v-3h-2c0.33 0.99 0.66 1.98 1 3h-6v2c2.64-0.33 5.28-0.66 8-1 0.33 0.99 0.66 1.98 1 3-0.99 1.49-0.99 1.49-2 3-2.38 0.293-2.38 0.293-5.12 0.188-0.91-0.0271-1.82-0.0541-2.76-0.082-0.699-0.0348-1.4-0.0696-2.12-0.105-0.575-3.73-1-7.21-1-11z" fill="#2D231C"/>
<path transform="translate(91,466)" d="m0 0c1.32 0.33 2.64 0.66 4 1v2c0.33 0.66 0.66 1.32 1 2-0.993 1.67-1.99 3.34-3 5-0.33 1.65-0.66 3.3-1 5h-12c0.66-0.66 1.32-1.32 2-2-0.33-0.66-0.66-1.32-1-2 1.65-0.33 3.3-0.66 5-1 0.433-1.45 0.433-1.45 0.875-2.94 1.12-3.06 1.12-3.06 3.12-4.06 0.33-0.99 0.66-1.98 1-3z" fill="#2E231C"/>
<path transform="translate(778,225)" d="m0 0c0.909 0.398 0.909 0.398 1.84 0.805 5.99 2.52 11.8 4.16 18.2 5.2-0.66 1.98-1.32 3.96-2 6h-2v-2c-1.65 0.66-3.3 1.32-5 2v-2h-5c-0.33-0.66-0.66-1.32-1-2 0.66-0.33 1.32-0.66 2-1-0.969-0.412-1.94-0.825-2.94-1.25-3.06-1.75-3.06-1.75-3.75-3.86-0.102-0.624-0.204-1.25-0.309-1.89z" fill="#291F15"/>
<path transform="translate(600,69)" d="m0 0c7.24 2.14 13.5 5.23 20 9v2c-2.75 0.688-2.75 0.688-6 1-2-1.25-2-1.25-4-3-4.26-2.4-4.26-2.4-9-3-0.33-1.98-0.66-3.96-1-6z" fill="#2E2319"/>
<path transform="translate(1411,367)" d="m0 0c1.44-0.0271 2.87-0.0465 4.31-0.0625 1.2-0.0174 1.2-0.0174 2.43-0.0352 2.26 0.0977 2.26 0.0977 5.26 1.1 1.69 3.06 1.69 3.06 3 6-0.99 0.33-1.98 0.66-3 1v2h-5c-0.0206-0.598-0.0412-1.2-0.0625-1.81-0.842-2.62-0.842-2.62-4.5-3.94-1.13-0.413-2.27-0.825-3.44-1.25 0.33-0.99 0.66-1.98 1-3z" fill="#2E231B"/>
<path transform="translate(929,157)" d="m0 0c2.88 0.688 2.88 0.688 6 2 1.38 2.62 1.38 2.62 2 5-2.36 2.73-4.58 3.89-8 5h-3c-0.883-2.47-1.13-3.64-0.223-6.14 0.383-0.696 0.766-1.39 1.16-2.11 0.38-0.706 0.761-1.41 1.15-2.14 0.3-0.531 0.601-1.06 0.91-1.61z" fill="#2B1F17"/>
<path transform="translate(885,170)" d="m0 0c4 4.62 4 4.62 4 8h2v2c-2.97 0.66-5.94 1.32-9 2-0.33-0.66-0.66-1.32-1-2-0.99-0.33-1.98-0.66-3-1 1.56-3.82 4.04-6.19 7-9z" fill="#2F2419"/>
<path transform="translate(312,288)" d="m0 0v3h-2v2h-2v3c-1.36 1.43-1.36 1.43-3.19 2.88-2.35 1.9-4.54 3.81-6.62 6-2.19 2.12-2.19 2.12-4.19 2.12-0.33 0.99-0.66 1.98-1 3-0.99 0.33-1.98 0.66-3 1 2.94-6.38 6.7-10.9 12-15.3 1.7-1.45 3.24-2.94 4.77-4.55 2.19-2.12 2.19-2.12 5.19-3.12z" fill="#2C211A"/>
<path transform="translate(539,63)" d="m0 0c0.33 0.66 0.66 1.32 1 2-0.99 0.33-1.98 0.66-3 1h2.31 5.69v3c-0.66 0.66-1.32 1.32-2 2-1.34-0.302-2.67-0.64-4-1-2.32 0.233-4.58 0.628-6.88 1.04-2.12-0.0391-2.12-0.0391-3.9-1.52-0.403-0.503-0.807-1.01-1.22-1.52 1.25-0.651 2.5-1.3 3.75-1.94 0.696-0.36 1.39-0.719 2.11-1.09 2.04-0.928 3.95-1.5 6.14-1.97z" fill="#291E16"/>
<path transform="translate(754,257)" d="m0 0c1.65 0.33 3.3 0.66 5 1-0.33 1.32-0.66 2.64-1 4 0.99 0.33 1.98 0.66 3 1h-2v3c2.97 0.495 2.97 0.495 6 1-0.33 0.99-0.66 1.98-1 3-6.75-0.75-6.75-0.75-9-3-1.92-3.75-2.16-5.95-1-10z" fill="#2D231B"/>
<path transform="translate(474,131)" d="m0 0c-0.908 1.13-1.83 2.26-2.75 3.38-0.51 0.626-1.02 1.25-1.55 1.9-1.79 1.81-3.38 2.73-5.7 3.73-0.33-0.66-0.66-1.32-1-2l-2 1c-0.66-0.66-1.32-1.32-2-2 4.71-5.8 7.6-6.89 15-6z" fill="#2D221B"/>
<path transform="translate(552,60)" d="m0 0c3.1-0.029 6.21-0.0468 9.31-0.0625 0.881-0.00838 1.76-0.0168 2.67-0.0254 0.848-0.00322 1.7-0.00645 2.57-0.00977 1.17-0.00786 1.17-0.00786 2.36-0.0159 2.08 0.114 2.08 0.114 5.08 1.11 1.67 0.0387 3.33 0.045 5 0 0.33 0.99 0.66 1.98 1 3 0.99 0.33 1.98 0.66 3 1-2.4-0.142-4.79-0.288-7.19-0.438-0.674-0.0393-1.35-0.0786-2.04-0.119-3.67-0.233-7.19-0.615-10.8-1.44v-1c-3.63-0.33-7.26-0.66-11-1v-1z" fill="#2B211A"/>
<path transform="translate(1158,309)" d="m0 0h10c2.04 4.07 2.03 6.59 1 11-3-2-3-2-4-5-1.65-0.33-3.3-0.66-5-1v-3h-2v-2z" fill="#2E241C"/>
<path transform="translate(1152,300)" d="m0 0c5.8 1.49 10.2 4.59 15 8-0.99 1.49-0.99 1.49-2 3-3.95-0.564-6.83-1.54-10-4-0.812-2.69-0.812-2.69-1-5h-2v-2z" fill="#2C2117"/>
<path transform="translate(1559,458)" d="m0 0h3c1.46 2.65 2 3.89 2 7-2.52 1.26-4.31 1.1-7.12 1.06-0.91-0.00902-1.82-0.018-2.76-0.0273-0.699-0.0116-1.4-0.0232-2.12-0.0352 0.99-0.33 1.98-0.66 3-1-0.33-1.32-0.66-2.64-1-4 1.65-0.66 3.3-1.32 5-2v-1z" fill="#2B1F17"/>
<path transform="translate(1248,281)" d="m0 0h3c-0.0836 2.84-0.53 4.53-2.55 6.56-1.23 1.02-2.48 2.03-3.75 3.01-1.95 1.51-1.95 1.51-3.69 4.43-3.12 1.19-3.12 1.19-6 2 3.06-4.45 6.12-8.22 10-12 0.536-0.763 1.07-1.53 1.62-2.31 0.454-0.557 0.908-1.11 1.38-1.69z" fill="#2D2218"/>
<path transform="translate(343,281)" d="m0 0c0.33 1.32 0.66 2.64 1 4h3c-0.125 1.88-0.125 1.88-1 4-4.06 1.89-7.57 2.21-12 2 0.33-0.99 0.66-1.98 1-3h3c0.268-0.969 0.536-1.94 0.812-2.94 0.392-1.01 0.784-2.02 1.19-3.06 0.99-0.33 1.98-0.66 3-1z" fill="#2E241D"/>
<path transform="translate(939 133)" d="m0 0c1.14 0.00483 1.14 0.00483 2.29 0.00977 1.18 0.0126 1.18 0.0126 2.38 0.0254 0.797 0.00451 1.59 0.00902 2.42 0.0137 1.97 0.0118 3.93 0.0297 5.9 0.0488v1c-0.831 0.0142-1.66 0.0284-2.52 0.043-1.09 0.0477-2.17 0.0954-3.29 0.145-1.08 0.0348-2.16 0.0696-3.27 0.105-3.12 0.412-3.12 0.412-4.62 3.2-0.429 0.829-0.859 1.66-1.3 2.51-3.62 1.21-4.64 0.543-8-1 0.495-0.454 0.99-0.907 1.5-1.38 1.73-1.5 1.73-1.5 1.5-3.62 2.71-0.902 4.24-1.12 7.01-1.1z" fill="#221A15"/>
<path transform="translate(808,230)" d="m0 0v9c-2.31 0.33-4.62 0.66-7 1 0.33-1.32 0.66-2.64 1-4h3v-2c-0.99 0.33-1.98 0.66-3 1v-2c-0.99 0.33-1.98 0.66-3 1 0.312-1.94 0.312-1.94 1-4 3.29-1.1 4.71-0.8 8 0z" fill="#2E2218"/>
<path transform="translate(897,160)" d="m0 0c-0.413 4.82-2.38 6.91-6 10h-2c-0.33 0.99-0.66 1.98-1 3-0.66-0.33-1.32-0.66-2-1 0.596-3.58 2-5.54 4.38-8.25 0.606-0.706 1.21-1.41 1.84-2.14 1.79-1.61 1.79-1.61 4.79-1.61z" fill="#2C2118"/>
<path transform="translate(1478,407)" d="m0 0c2.72 0.523 4.63 1.33 7.12 2.62 0.949 0.454 1.9 0.908 2.88 1.38 0.66-0.33 1.32-0.66 2-1-0.33 1.32-0.66 2.64-1 4-4.72 0.925-7.67 1.23-12-1 0.351-0.619 0.701-1.24 1.06-1.88 0.309-0.701 0.619-1.4 0.938-2.12-0.33-0.66-0.66-1.32-1-2z" fill="#2F241A"/>
<path transform="translate(1508,418)" d="m0 0c4.87 0.596 8.59 2.72 12.8 5.06 0.693 0.377 1.39 0.754 2.1 1.14 1.7 0.926 3.39 1.86 5.09 2.79-0.99 0.33-1.98 0.66-3 1-0.66-0.33-1.32-0.66-2-1-0.33 0.66-0.66 1.32-1 2-0.66-0.66-1.32-1.32-2-2-2.58-0.167-2.58-0.167-5 0-0.412-0.928-0.825-1.86-1.25-2.81-1.68-3.07-2.83-4.38-5.75-6.19z" fill="#19130E"/>
<path transform="translate(91,466)" d="m0 0c1.32 0.33 2.64 0.66 4 1v2c0.33 0.66 0.66 1.32 1 2-0.938 2.12-0.938 2.12-2 4h-7c0.375-2.44 0.375-2.44 1-5 0.66-0.33 1.32-0.66 2-1 0.33-0.99 0.66-1.98 1-3z" fill="#2F2419"/>
<path transform="translate(466,126)" d="m0 0 4 4c-1.27 0.526-1.27 0.526-2.56 1.06-3.7 2.09-6.07 4.41-8.92 7.51-1.52 1.43-1.52 1.43-3.52 1.43 0-3 0-3 1.88-5.19 2.12-1.81 2.12-1.81 4.12-1.81 0.268-0.598 0.536-1.2 0.812-1.81 1.17-2.16 2.38-3.55 4.19-5.19z" fill="#261D16"/>
<path transform="translate(350,248)" d="m0 0v3h-3c-0.0825 0.598-0.165 1.2-0.25 1.81-0.966 2.82-2.24 3.67-4.75 5.19h-2c-0.248 0.598-0.495 1.2-0.75 1.81-1.41 2.47-2.9 3.62-5.25 5.19-0.66-0.33-1.32-0.66-2-1 8.98-8.98 8.98-8.98 10.6-10.5 1.26-1.26 2.49-2.55 3.71-3.85 1.73-1.61 1.73-1.61 3.73-1.61z" fill="#2D2119"/>
<path transform="translate(314,313)" d="m0 0h4v3c0.99-0.33 1.98-0.66 3-1 0.688 1.75 0.688 1.75 1 4-1.44 2.25-1.44 2.25-3 4v-2c-0.804-0.248-1.61-0.495-2.44-0.75-2.56-1.25-2.56-1.25-3.44-3.25-0.125-2-0.125-2 0.875-4z" fill="#2D231C"/>
<path transform="translate(1412,360)" d="m0 0c1.48 0.953 2.96 1.91 4.44 2.88 1.24 0.801 1.24 0.801 2.5 1.62 2.07 1.51 2.07 1.51 3.07 3.51-1.46 0.027-2.92 0.0464-4.38 0.0625-0.812 0.0116-1.62 0.0232-2.46 0.0352-2.16-0.0977-2.16-0.0977-4.16-1.1-0.0425-2-0.0408-4 0-6 0.33-0.33 0.66-0.66 1-1zm-2 7c0.66 0.66 1.32 1.32 2 2h-2v-2z" fill="#211912"/>
<path transform="translate(901,166)" d="m0 0c0.99 0.99 1.98 1.98 3 3-1.56 2.5-1.56 2.5-4 5-3.75 0.312-3.75 0.312-7 0 4-6.57 4-6.57 8-8z" fill="#2E241C"/>
<path transform="translate(799,251)" d="m0 0c1.65 0.33 3.3 0.66 5 1-0.165 0.763-0.33 1.53-0.5 2.31-0.591 2.72-0.591 2.72-0.5 5.69-0.33-0.66-0.66-1.32-1-2-2.64 0.33-5.28 0.66-8 1 1-3 1-3 4-5 0.33-0.99 0.66-1.98 1-3z" fill="#2D231B"/>
<path transform="translate(185,385)" d="m0 0c0.33 0.66 0.66 1.32 1 2-0.33 0.99-0.66 1.98-1 3-1.58 0.651-3.15 1.29-4.75 1.91-4.82 2.34-9 5.86-13.3 9.09-0.66-0.33-1.32-0.66-2-1 13.6-10.6 13.6-10.6 20-15z" fill="#100C0A"/>
<path transform="translate(1424,369)" d="m0 0c1.48 0.953 2.96 1.91 4.44 2.88 1.24 0.801 1.24 0.801 2.5 1.62 2.07 1.51 2.07 1.51 3.07 3.51-1.46 0.195-2.92 0.381-4.38 0.562-0.812 0.104-1.62 0.209-2.46 0.316-2.16 0.121-2.16 0.121-4.16-0.879 0-2 0-2 2-4-0.319-2.11-0.319-2.11-1-4z" fill="#221912"/>
<path transform="translate(842,229)" d="m0 0c1.19 2.06 1.19 2.06 2 4-1.98 0.99-3.96 1.98-6 3-1.56-1.25-1.56-1.25-3-3 0.125-2.12 0.125-2.12 1-4 3-1 3-1 6 0z" fill="#2E241D"/>
<path transform="translate(330,301)" d="m0 0h2c-0.33 1.98-0.66 3.96-1 6h-3c-0.66 2.31-1.32 4.62-2 7-1.32-0.66-2.64-1.32-4-2 0.33-2.31 0.66-4.62 1-7 3.46-0.495 3.46-0.495 7-1v-3z" fill="#2D231C"/>
<path transform="translate(651,101)" d="m0 0c0.66 0.33 1.32 0.66 2 1v2c0.784 0.268 1.57 0.536 2.38 0.812 2.62 1.19 2.62 1.19 4.62 4.19-3.94 1.31-6.12 0.243-10-1 0.33-0.99 0.66-1.98 1-3-0.33-0.66-0.66-1.32-1-2 0.33-0.66 0.66-1.32 1-2z" fill="#2E241B"/>
<path transform="translate(584,65)" d="m0 0c5.93-0.379 10.5 0.894 16 3v3c-4.46-0.99-4.46-0.99-9-2v-2c-2.31-0.33-4.62-0.66-7-1v-1z" fill="#2C2118"/>
<path transform="translate(1321,287)" d="m0 0c3.18-0.466 5.25-0.51 7.96 1.34 1.74 1.51 3.41 3.04 5.04 4.66-3.01 0.934-3.87 1.04-7 0l-6-6z" fill="#2F2419"/>
<path transform="translate(1279,265)" d="m0 0c6.2-0.38 10.4 0.165 16 3v2c0.99 0.33 1.98 0.66 3 1-6.75-0.875-6.75-0.875-9-2v-2h-10v-2z" fill="#261D16"/>
<path transform="translate(814,242)" d="m0 0c1.83 0.371 1.83 0.371 4 1 1.58 0.0655 3.17 0.0858 4.75 0.0625 1.2-0.0135 1.2-0.0135 2.42-0.0273 0.905-0.0174 0.905-0.0174 1.83-0.0352v4c-5.14-0.642-9.99-1.68-15-3 0.66-0.66 1.32-1.32 2-2z" fill="#2F241A"/>
<path transform="translate(556,97)" d="m0 0v1c-1.65 0.33-3.3 0.66-5 1-0.33 1.32-0.66 2.64-1 4-1.88 0.625-1.88 0.625-4 1-0.66-0.66-1.32-1.32-2-2h2v-5c3.7-0.95 6.3-0.95 10 0z" fill="#2E231C"/>
<path transform="translate(1279,272)" d="m0 0h5c-0.33 3.3-0.66 6.6-1 10 0.66 0.33 1.32 0.66 2 1l-4 1v-3c-0.99-0.33-1.98-0.66-3-1 0.99-0.66 1.98-1.32 3-2 0.33-0.99 0.66-1.98 1-3h-5c0.66-0.99 1.32-1.98 2-3z" fill="#2E241D"/>
<path transform="translate(1100,254)" d="m0 0c4.43 2.28 6.92 5.13 10 9 1.32 1.35 2.64 2.69 4 4-0.33 0.66-0.66 1.32-1 2-4.8-3.88-9.43-7.92-13-13v-2z" fill="#2B221B"/>
<path transform="translate(230,356)" d="m0 0c-3.68 4.01-7.19 6.45-12 9 1.87-6.11 5.36-9.76 12-9z" fill="#211914"/>
<path transform="translate(331,273)" d="m0 0c2.12 0.938 2.12 0.938 4 2l-2 1c-0.66-0.33-1.32-0.66-2-1 0.348 1.98 0.348 1.98 1 4 0.66 0.33 1.32 0.66 2 1-1.98 0.66-3.96 1.32-6 2-0.897-2.51-1.13-3.65-0.188-6.19 1.19-1.81 1.19-1.81 3.19-2.81z" fill="#2D231C"/>
<path transform="translate(1450,400)" d="m0 0c3.46 1.49 3.46 1.49 7 3l-4 2c1.65 0.33 3.3 0.66 5 1-0.33 0.66-0.66 1.32-1 2h-5v-2c-0.66-0.33-1.32-0.66-2-1-0.33-0.66-0.66-1.32-1-2 0.33-0.99 0.66-1.98 1-3z" fill="#2F2419"/>
<path transform="translate(1260,271)" d="m0 0c0.66 0.66 1.32 1.32 2 2-2.46 4.8-2.46 4.8-5.19 5.81-0.598 0.0619-1.2 0.124-1.81 0.188 0-3 0-3 2.5-5.69 0.825-0.763 1.65-1.53 2.5-2.31zm-8 6h2c-0.33 0.99-0.66 1.98-1 3-0.33-0.99-0.66-1.98-1-3z" fill="#2D221A"/>
<path transform="translate(531,91)" d="m0 0c0.598 0.309 1.2 0.619 1.81 0.938 2.28 1.16 2.28 1.16 5.19 2.06v2c-3.73 1.24-6.18 0.778-10 0-0.33-0.66-0.66-1.32-1-2 1.32-0.33 2.64-0.66 4-1v-2z" fill="#2F2419"/>
<path transform="translate(1482,428)" d="m0 0c0.33 0.66 0.66 1.32 1 2 2.53 0.656 2.53 0.656 5 1v4c-2.64-0.33-5.28-0.66-8-1v-2h2v-4z" fill="#2D231C"/>
<path transform="translate(955,134)" d="m0 0c4.46 0.99 4.46 0.99 9 2-0.66 1.32-1.32 2.64-2 4-2.64-0.99-5.28-1.98-8-3 0.33-0.99 0.66-1.98 1-3z" fill="#2A1F16"/>
<path transform="translate(1541,459)" d="m0 0c2.97 0.33 5.94 0.66 9 1-0.33 1.32-0.66 2.64-1 4-2.64-0.33-5.28-0.66-8-1v-4z" fill="#302419"/>
<path transform="translate(334,312)" d="m0 0c0.99 0.33 1.98 0.66 3 1-2.31 3.3-4.62 6.6-7 10-1.07-4.3-0.979-5.24 1-9 0.99-0.66 1.98-1.32 3-2z" fill="#2E241C"/>
<path transform="translate(521,84)" d="m0 0c2.17 0.506 4 1 6 2-0.33 1.32-0.66 2.64-1 4-0.99-0.33-1.98-0.66-3-1v2c-0.99-0.33-1.98-0.66-3-1 0-4 0-4 1-6z" fill="#2E241D"/>
<path transform="translate(1503,417)" d="m0 0c1.46 0.424 2.92 0.865 4.38 1.31 0.812 0.244 1.62 0.487 2.46 0.738 2.16 0.949 2.16 0.949 4.16 3.95l-2 1v-2c-0.99 0.33-1.98 0.66-3 1-2.72-0.906-3.75-1.54-5.12-4.08-0.435-0.949-0.435-0.949-0.879-1.92z" fill="#2F2419"/>
<path transform="translate(263,331)" d="m0 0c-0.625 1.94-0.625 1.94-2 4-3.12 0.75-3.12 0.75-6 1 4.62-5 4.62-5 8-5zm-10 5h2v3c-0.99 0.33-1.98 0.66-3 1 0.33-1.32 0.66-2.64 1-4z" fill="#2D2118"/>
<path transform="translate(351,288)" d="m0 0h3c-1.55 3.35-3.49 6.25-5.62 9.25-0.632 0.892-1.26 1.78-1.91 2.7-0.482 0.675-0.964 1.35-1.46 2.05-0.33-0.66-0.66-1.32-1-2 0.784-1.05 1.57-2.1 2.38-3.19 2.03-2.83 3.52-5.49 4.62-8.81z" fill="#2E241C"/>
<path transform="translate(909,148)" d="m0 0v2h-3c-0.247 0.577-0.495 1.16-0.75 1.75-1.42 2.55-3.13 4.27-5.25 6.25-0.33-0.99-0.66-1.98-1-3 2.71-3.96 4.93-7 10-7z" fill="#2E2219"/>
<path transform="translate(296,301)" d="m0 0h3c-0.812 2.44-0.812 2.44-2 5-0.99 0.33-1.98 0.66-3 1-0.33 0.99-0.66 1.98-1 3-0.99 0.33-1.98 0.66-3 1 1.66-3.59 3.63-6.84 6-10z" fill="#2D231B"/>
<path transform="translate(352,276)" d="m0 0v3h-8v-4c4.62-1.25 4.62-1.25 8 1z" fill="#2D231C"/>
<path transform="translate(368,227)" d="m0 0c0.812 1.69 0.812 1.69 1 4-2.19 2.75-2.19 2.75-5 5h-4c0.957-1.13 1.92-2.25 2.88-3.38 0.534-0.626 1.07-1.25 1.62-1.9 1.12-1.28 2.3-2.52 3.51-3.73z" fill="#2D2119"/>
<path transform="translate(544 90.9)" d="m0 0c1.21 0.0309 1.21 0.0309 2.44 0.0625v3h8v1c-3.63 0.33-7.26 0.66-11 1-0.33-0.99-0.66-1.98-1-3-0.66-0.33-1.32-0.66-2-1 1-1 1-1 3.56-1.06z" fill="#2E231C"/>
<path transform="translate(1426,377)" d="m0 0h8c0.66 1.65 1.32 3.3 2 5l-2 1v-2h-3v-2c-1.65-0.33-3.3-0.66-5-1v-1z" fill="#2E241B"/>
<path transform="translate(389,205)" d="m0 0h2c-0.75 1.94-0.75 1.94-2 4-2.12 0.75-2.12 0.75-4 1 1.28-1.71 2.62-3.37 4-5zm-6 6c0.66 0.66 1.32 1.32 2 2-0.33 0.66-0.66 1.32-1 2-2.06 0.625-2.06 0.625-4 1 1.88-3.88 1.88-3.88 3-5z" fill="#2F241A"/>
<path transform="translate(1257,303)" d="m0 0c0.33 1.32 0.66 2.64 1 4h2v4h-6c0.33-1.32 0.66-2.64 1-4 0.33 0.33 0.66 0.66 1 1 0.33-1.65 0.66-3.3 1-5z" fill="#302419"/>
<path transform="translate(757,264)" d="m0 0h2v2c2.97 0.495 2.97 0.495 6 1-0.33 0.99-0.66 1.98-1 3-2.31-0.33-4.62-0.66-7-1v-5z" fill="#2E241C"/>
<path transform="translate(863,214)" d="m0 0c0.66 0.66 1.32 1.32 2 2-0.375 2.62-0.375 2.62-1 5-2.31-0.66-4.62-1.32-7-2 1.93-2.02 3.63-3.42 6-5z" fill="#2E241D"/>
<path transform="translate(643,94)" d="m0 0c0.33 0.66 0.66 1.32 1 2 0.804 0.268 1.61 0.536 2.44 0.812 2.56 1.19 2.56 1.19 3.88 3.81 0.227 0.784 0.454 1.57 0.688 2.38-4.84-2.38-4.84-2.38-7-4-0.938-2.75-0.938-2.75-1-5z" fill="#281F19"/>
<path transform="translate(56,495)" d="m0 0c0.66 0.66 1.32 1.32 2 2h-2v-2z" fill="#0E0A09"/>
</svg>
